M48
; DRILL file {KiCad (5.1.5)-3} date 8.04.2020 14:30:35
; FORMAT={-:-/ absolute / metric / decimal}
; #@! TF.CreationDate,2020-04-08T14:30:35+03:00
; #@! TF.GenerationSoftware,Kicad,Pcbnew,(5.1.5)-3
; #@! TF.FileFunction,Plated,1,2,PTH
FMAT,2
METRIC
T1C0.400
T2C0.800
%
G90
G05
T1
X146.0Y-67.0
T2
X126.0Y-97.0
X128.5Y-67.5
X132.5Y-97.5
X135.5Y-103.5
X135.5Y-109.5
X136.5Y-68.0
X146.0Y-67.0
X146.5Y-74.5
X149.5Y-60.5
X150.0Y-66.5
X152.0Y-106.5
X154.0Y-70.5
X155.0Y-66.5
X164.0Y-63.0
X168.5Y-84.5
X170.5Y-105.5
X171.0Y-99.5
X172.0Y-89.0
X132.5Y-82.0
X132.5Y-84.54
X132.5Y-87.08
X132.5Y-89.62
X132.5Y-92.16
X177.0Y-67.96
X177.0Y-70.5
X169.5Y-81.5
X177.12Y-81.5
X137.46Y-60.5
X137.46Y-63.04
X140.0Y-60.5
X140.0Y-63.04
X142.54Y-60.5
X142.54Y-63.04
X145.08Y-60.5
X145.08Y-63.04
X125.0Y-72.0
X125.0Y-74.54
X174.42Y-87.0
X176.96Y-87.0
X179.5Y-87.0
X123.0Y-92.46
X123.0Y-95.0
X166.5Y-99.5
X166.5Y-102.04
X166.5Y-104.58
X129.0Y-82.0
X129.0Y-84.54
X129.0Y-87.08
X129.0Y-89.62
X129.0Y-92.16
X142.88Y-74.22
X142.88Y-76.76
X142.88Y-79.3
X142.88Y-81.84
X142.88Y-84.38
X142.88Y-86.92
X142.88Y-89.46
X142.88Y-92.0
X142.88Y-94.54
X142.88Y-97.08
X142.88Y-99.62
X142.88Y-102.16
X142.88Y-104.7
X142.88Y-107.24
X142.88Y-109.78
X158.12Y-74.22
X158.12Y-76.76
X158.12Y-79.3
X158.12Y-81.84
X158.12Y-84.38
X158.12Y-86.92
X158.12Y-89.46
X158.12Y-92.0
X158.12Y-94.54
X158.12Y-97.08
X158.12Y-99.62
X158.12Y-102.16
X158.12Y-104.7
X158.12Y-107.24
X158.12Y-109.78
X136.0Y-82.0
X136.0Y-84.54
X136.0Y-87.08
X136.0Y-89.62
X136.0Y-92.16
X125.0Y-64.46
X125.0Y-67.0
X173.5Y-67.96
X173.5Y-70.5
X174.5Y-96.0
X177.04Y-96.0
X166.5Y-91.96
X166.5Y-94.5
X123.0Y-99.96
X123.0Y-102.5
X169.5Y-77.0
X177.12Y-77.0
X170.0Y-67.96
X170.0Y-70.5
T0
M30
