G04 #@! TF.GenerationSoftware,KiCad,Pcbnew,(5.1.5)-3*
G04 #@! TF.CreationDate,2020-04-08T14:30:32+03:00*
G04 #@! TF.ProjectId,Receiver,52656365-6976-4657-922e-6b696361645f,rev?*
G04 #@! TF.SameCoordinates,Original*
G04 #@! TF.FileFunction,Copper,L1,Top*
G04 #@! TF.FilePolarity,Positive*
%FSLAX46Y46*%
G04 Gerber Fmt 4.6, Leading zero omitted, Abs format (unit mm)*
G04 Created by KiCad (PCBNEW (5.1.5)-3) date 2020-04-08 14:30:32*
%MOMM*%
%LPD*%
G04 APERTURE LIST*
%ADD10O,1.700000X2.000000*%
%ADD11R,2.000000X2.000000*%
%ADD12O,2.000000X1.700000*%
%ADD13C,2.000000*%
%ADD14O,2.000000X2.000000*%
%ADD15O,2.200000X1.700000*%
%ADD16C,0.800000*%
%ADD17C,2.500000*%
%ADD18C,1.000000*%
G04 APERTURE END LIST*
D10*
X176960000Y-87000000D03*
X174420000Y-87000000D03*
D11*
X179500000Y-87000000D03*
X123000000Y-102500000D03*
D12*
X123000000Y-99960000D03*
D11*
X125000000Y-64460000D03*
D12*
X125000000Y-67000000D03*
D13*
X169500000Y-77000000D03*
D14*
X177120000Y-77000000D03*
D10*
X145080000Y-60500000D03*
X145080000Y-63040000D03*
X142540000Y-60500000D03*
X142540000Y-63040000D03*
X140000000Y-60500000D03*
X140000000Y-63040000D03*
X137460000Y-60500000D03*
D11*
X137460000Y-63040000D03*
D13*
X169500000Y-81500000D03*
D14*
X177120000Y-81500000D03*
D11*
X174500000Y-96000000D03*
D10*
X177040000Y-96000000D03*
D11*
X129000000Y-82000000D03*
D12*
X129000000Y-84540000D03*
X129000000Y-87080000D03*
X129000000Y-89620000D03*
X129000000Y-92160000D03*
D11*
X132500000Y-82000000D03*
D12*
X132500000Y-84540000D03*
X132500000Y-87080000D03*
X132500000Y-89620000D03*
X132500000Y-92160000D03*
D11*
X166500000Y-94500000D03*
D12*
X166500000Y-91960000D03*
D11*
X136000000Y-82000000D03*
D12*
X136000000Y-84540000D03*
X136000000Y-87080000D03*
X136000000Y-89620000D03*
X136000000Y-92160000D03*
D11*
X166500000Y-99500000D03*
D12*
X166500000Y-102040000D03*
X166500000Y-104580000D03*
D11*
X125000000Y-72000000D03*
D12*
X125000000Y-74540000D03*
D11*
X123000000Y-92460000D03*
D12*
X123000000Y-95000000D03*
D11*
X170000000Y-70500000D03*
D12*
X170000000Y-67960000D03*
D11*
X177000000Y-70500000D03*
D12*
X177000000Y-67960000D03*
D11*
X173500000Y-70500000D03*
D12*
X173500000Y-67960000D03*
D15*
X158120000Y-74220000D03*
X142880000Y-74220000D03*
X158120000Y-76760000D03*
X142880000Y-76760000D03*
X158120000Y-79300000D03*
X142880000Y-79300000D03*
X158120000Y-81840000D03*
X142880000Y-81840000D03*
X158120000Y-84380000D03*
X142880000Y-84380000D03*
X158120000Y-86920000D03*
X142880000Y-86920000D03*
X158120000Y-89460000D03*
X142880000Y-89460000D03*
X158120000Y-92000000D03*
X142880000Y-92000000D03*
X158120000Y-94540000D03*
X142880000Y-94540000D03*
X158120000Y-97080000D03*
X142880000Y-97080000D03*
X158120000Y-99620000D03*
X142880000Y-99620000D03*
X158120000Y-102160000D03*
X142880000Y-102160000D03*
X158120000Y-104700000D03*
X142880000Y-104700000D03*
X158120000Y-107240000D03*
X142880000Y-107240000D03*
D11*
X158120000Y-109780000D03*
D15*
X142880000Y-109780000D03*
D16*
X146000000Y-67000000D03*
D17*
X146000000Y-67000000D03*
X146500000Y-74500000D03*
X149500000Y-60500000D03*
X150000000Y-66500000D03*
X168500000Y-84500000D03*
X172000000Y-89000000D03*
X170500000Y-105500000D03*
X171000000Y-99500000D03*
X152000000Y-106500000D03*
X154000000Y-70500000D03*
X155000000Y-66500000D03*
X164000000Y-63000000D03*
X128500000Y-67500000D03*
X136500000Y-68000000D03*
X126000000Y-97000000D03*
X132500000Y-97500000D03*
X135500000Y-103500000D03*
X135500000Y-109500000D03*
D18*
X146000000Y-67000000D02*
X146000000Y-74000000D01*
X146000000Y-74000000D02*
X146500000Y-74500000D01*
X146500000Y-74500000D02*
X146500000Y-74500000D01*
X149500000Y-62267766D02*
X150000000Y-62767766D01*
X149500000Y-60500000D02*
X149500000Y-62267766D01*
X150000000Y-62767766D02*
X150000000Y-66500000D01*
X150000000Y-66500000D02*
X150000000Y-66500000D01*
X168500000Y-86267766D02*
X171232234Y-89000000D01*
X168500000Y-84500000D02*
X168500000Y-86267766D01*
X171232234Y-89000000D02*
X171500000Y-89000000D01*
X171232234Y-89000000D02*
X172000000Y-89000000D01*
X172000000Y-89000000D02*
X172000000Y-89000000D01*
X170500000Y-105500000D02*
X170500000Y-100000000D01*
X170500000Y-100000000D02*
X171000000Y-99500000D01*
X171000000Y-99500000D02*
X171000000Y-99500000D01*
X152000000Y-104732234D02*
X154000000Y-102732234D01*
X152000000Y-106500000D02*
X152000000Y-104732234D01*
X154000000Y-102732234D02*
X154000000Y-70500000D01*
X154000000Y-70500000D02*
X154000000Y-70500000D01*
X156767766Y-66500000D02*
X160267766Y-63000000D01*
X155000000Y-66500000D02*
X156767766Y-66500000D01*
X160267766Y-63000000D02*
X164000000Y-63000000D01*
X164000000Y-63000000D02*
X164000000Y-63000000D01*
X128500000Y-67500000D02*
X136000000Y-67500000D01*
X136000000Y-67500000D02*
X136500000Y-68000000D01*
X136500000Y-68000000D02*
X136500000Y-68000000D01*
X126000000Y-97000000D02*
X132000000Y-97000000D01*
X132000000Y-97000000D02*
X132500000Y-97500000D01*
X132500000Y-97500000D02*
X132500000Y-97500000D01*
X135500000Y-103500000D02*
X135500000Y-105267766D01*
X135500000Y-105267766D02*
X135500000Y-109500000D01*
X135500000Y-109500000D02*
X135500000Y-109500000D01*
M02*
