G04 #@! TF.GenerationSoftware,KiCad,Pcbnew,(5.1.5)-3*
G04 #@! TF.CreationDate,2020-04-08T14:30:32+03:00*
G04 #@! TF.ProjectId,Receiver,52656365-6976-4657-922e-6b696361645f,rev?*
G04 #@! TF.SameCoordinates,Original*
G04 #@! TF.FileFunction,Legend,Top*
G04 #@! TF.FilePolarity,Positive*
%FSLAX46Y46*%
G04 Gerber Fmt 4.6, Leading zero omitted, Abs format (unit mm)*
G04 Created by KiCad (PCBNEW (5.1.5)-3) date 2020-04-08 14:30:32*
%MOMM*%
%LPD*%
G04 APERTURE LIST*
%ADD10C,0.120000*%
%ADD11C,0.150000*%
G04 APERTURE END LIST*
D10*
X178760000Y-85150000D02*
X175160000Y-85150000D01*
X179284184Y-85877205D02*
G75*
G03X178760000Y-85150000I-2324184J-1122795D01*
G01*
X179316400Y-88098807D02*
G75*
G02X176960000Y-89600000I-2356400J1098807D01*
G01*
X174603600Y-88098807D02*
G75*
G03X176960000Y-89600000I2356400J1098807D01*
G01*
X174635816Y-85877205D02*
G75*
G02X175160000Y-85150000I2324184J-1122795D01*
G01*
X121730000Y-103830000D02*
X121670000Y-103830000D01*
X121670000Y-103830000D02*
X121670000Y-98630000D01*
X121670000Y-98630000D02*
X124330000Y-98630000D01*
X124330000Y-98630000D02*
X124330000Y-101230000D01*
X124330000Y-101230000D02*
X121730000Y-101230000D01*
X121730000Y-101230000D02*
X121730000Y-103830000D01*
X123000000Y-103830000D02*
X124330000Y-103830000D01*
X124330000Y-103830000D02*
X124330000Y-102560000D01*
X126270000Y-63130000D02*
X126330000Y-63130000D01*
X126330000Y-63130000D02*
X126330000Y-68330000D01*
X126330000Y-68330000D02*
X123670000Y-68330000D01*
X123670000Y-68330000D02*
X123670000Y-65730000D01*
X123670000Y-65730000D02*
X126270000Y-65730000D01*
X126270000Y-65730000D02*
X126270000Y-63130000D01*
X125000000Y-63130000D02*
X123670000Y-63130000D01*
X123670000Y-63130000D02*
X123670000Y-64400000D01*
X170100000Y-76020000D02*
X170100000Y-75690000D01*
X170100000Y-75690000D02*
X176520000Y-75690000D01*
X176520000Y-75690000D02*
X176520000Y-76020000D01*
X170100000Y-77980000D02*
X170100000Y-78310000D01*
X170100000Y-78310000D02*
X176520000Y-78310000D01*
X176520000Y-78310000D02*
X176520000Y-77980000D01*
D11*
X136200000Y-64300000D02*
X151700000Y-64300000D01*
X136200000Y-23300000D02*
X136200000Y-64300000D01*
X151700000Y-23300000D02*
X136200000Y-23300000D01*
X151700000Y-64300000D02*
X151700000Y-23300000D01*
D10*
X170100000Y-80520000D02*
X170100000Y-80190000D01*
X170100000Y-80190000D02*
X176520000Y-80190000D01*
X176520000Y-80190000D02*
X176520000Y-80520000D01*
X170100000Y-82480000D02*
X170100000Y-82810000D01*
X170100000Y-82810000D02*
X176520000Y-82810000D01*
X176520000Y-82810000D02*
X176520000Y-82480000D01*
X173170000Y-94730000D02*
X173170000Y-94670000D01*
X173170000Y-94670000D02*
X178370000Y-94670000D01*
X178370000Y-94670000D02*
X178370000Y-97330000D01*
X178370000Y-97330000D02*
X175770000Y-97330000D01*
X175770000Y-97330000D02*
X175770000Y-94730000D01*
X175770000Y-94730000D02*
X173170000Y-94730000D01*
X173170000Y-96000000D02*
X173170000Y-97330000D01*
X173170000Y-97330000D02*
X174440000Y-97330000D01*
X127670000Y-83270000D02*
X127670000Y-93490000D01*
X127670000Y-93490000D02*
X130330000Y-93490000D01*
X130330000Y-93490000D02*
X130330000Y-83270000D01*
X130330000Y-83270000D02*
X127670000Y-83270000D01*
X127670000Y-82000000D02*
X127670000Y-80670000D01*
X127670000Y-80670000D02*
X129000000Y-80670000D01*
X131170000Y-83270000D02*
X131170000Y-93490000D01*
X131170000Y-93490000D02*
X133830000Y-93490000D01*
X133830000Y-93490000D02*
X133830000Y-83270000D01*
X133830000Y-83270000D02*
X131170000Y-83270000D01*
X131170000Y-82000000D02*
X131170000Y-80670000D01*
X131170000Y-80670000D02*
X132500000Y-80670000D01*
X165230000Y-95830000D02*
X165170000Y-95830000D01*
X165170000Y-95830000D02*
X165170000Y-90630000D01*
X165170000Y-90630000D02*
X167830000Y-90630000D01*
X167830000Y-90630000D02*
X167830000Y-93230000D01*
X167830000Y-93230000D02*
X165230000Y-93230000D01*
X165230000Y-93230000D02*
X165230000Y-95830000D01*
X166500000Y-95830000D02*
X167830000Y-95830000D01*
X167830000Y-95830000D02*
X167830000Y-94560000D01*
X134670000Y-83270000D02*
X134670000Y-93490000D01*
X134670000Y-93490000D02*
X137330000Y-93490000D01*
X137330000Y-93490000D02*
X137330000Y-83270000D01*
X137330000Y-83270000D02*
X134670000Y-83270000D01*
X134670000Y-82000000D02*
X134670000Y-80670000D01*
X134670000Y-80670000D02*
X136000000Y-80670000D01*
X165170000Y-100770000D02*
X165170000Y-105910000D01*
X165170000Y-105910000D02*
X167830000Y-105910000D01*
X167830000Y-105910000D02*
X167830000Y-100770000D01*
X167830000Y-100770000D02*
X165170000Y-100770000D01*
X165170000Y-99500000D02*
X165170000Y-98170000D01*
X165170000Y-98170000D02*
X166500000Y-98170000D01*
X126270000Y-70670000D02*
X126330000Y-70670000D01*
X126330000Y-70670000D02*
X126330000Y-75870000D01*
X126330000Y-75870000D02*
X123670000Y-75870000D01*
X123670000Y-75870000D02*
X123670000Y-73270000D01*
X123670000Y-73270000D02*
X126270000Y-73270000D01*
X126270000Y-73270000D02*
X126270000Y-70670000D01*
X125000000Y-70670000D02*
X123670000Y-70670000D01*
X123670000Y-70670000D02*
X123670000Y-71940000D01*
X124270000Y-91130000D02*
X124330000Y-91130000D01*
X124330000Y-91130000D02*
X124330000Y-96330000D01*
X124330000Y-96330000D02*
X121670000Y-96330000D01*
X121670000Y-96330000D02*
X121670000Y-93730000D01*
X121670000Y-93730000D02*
X124270000Y-93730000D01*
X124270000Y-93730000D02*
X124270000Y-91130000D01*
X123000000Y-91130000D02*
X121670000Y-91130000D01*
X121670000Y-91130000D02*
X121670000Y-92400000D01*
X168730000Y-71830000D02*
X168670000Y-71830000D01*
X168670000Y-71830000D02*
X168670000Y-66630000D01*
X168670000Y-66630000D02*
X171330000Y-66630000D01*
X171330000Y-66630000D02*
X171330000Y-69230000D01*
X171330000Y-69230000D02*
X168730000Y-69230000D01*
X168730000Y-69230000D02*
X168730000Y-71830000D01*
X170000000Y-71830000D02*
X171330000Y-71830000D01*
X171330000Y-71830000D02*
X171330000Y-70560000D01*
X175730000Y-71830000D02*
X175670000Y-71830000D01*
X175670000Y-71830000D02*
X175670000Y-66630000D01*
X175670000Y-66630000D02*
X178330000Y-66630000D01*
X178330000Y-66630000D02*
X178330000Y-69230000D01*
X178330000Y-69230000D02*
X175730000Y-69230000D01*
X175730000Y-69230000D02*
X175730000Y-71830000D01*
X177000000Y-71830000D02*
X178330000Y-71830000D01*
X178330000Y-71830000D02*
X178330000Y-70560000D01*
X172230000Y-71830000D02*
X172170000Y-71830000D01*
X172170000Y-71830000D02*
X172170000Y-66630000D01*
X172170000Y-66630000D02*
X174830000Y-66630000D01*
X174830000Y-66630000D02*
X174830000Y-69230000D01*
X174830000Y-69230000D02*
X172230000Y-69230000D01*
X172230000Y-69230000D02*
X172230000Y-71830000D01*
X173500000Y-71830000D02*
X174830000Y-71830000D01*
X174830000Y-71830000D02*
X174830000Y-70560000D01*
D11*
X141610000Y-70410000D02*
X141610000Y-113590000D01*
X159390000Y-113590000D02*
X159390000Y-70410000D01*
X141610000Y-113590000D02*
X159390000Y-113590000D01*
X154310000Y-108510000D02*
X146690000Y-108510000D01*
X154310000Y-113590000D02*
X154310000Y-108510000D01*
X146690000Y-108510000D02*
X146690000Y-113590000D01*
X149230000Y-111050000D02*
X149230000Y-113590000D01*
X146690000Y-111050000D02*
X149230000Y-111050000D01*
X143515000Y-112320000D02*
G75*
G03X143515000Y-112320000I-635000J0D01*
G01*
X158755000Y-112320000D02*
G75*
G03X158755000Y-112320000I-635000J0D01*
G01*
X143515000Y-71680000D02*
G75*
G03X143515000Y-71680000I-635000J0D01*
G01*
X158755000Y-71680000D02*
G75*
G03X158755000Y-71680000I-635000J0D01*
G01*
X148595000Y-112320000D02*
G75*
G03X148595000Y-112320000I-635000J0D01*
G01*
X148595000Y-109780000D02*
G75*
G03X148595000Y-109780000I-635000J0D01*
G01*
X151135000Y-109780000D02*
G75*
G03X151135000Y-109780000I-635000J0D01*
G01*
X153675000Y-109780000D02*
G75*
G03X153675000Y-109780000I-635000J0D01*
G01*
X153675000Y-112320000D02*
G75*
G03X153675000Y-112320000I-635000J0D01*
G01*
X151135000Y-112320000D02*
G75*
G03X151135000Y-112320000I-635000J0D01*
G01*
X146690000Y-76760000D02*
X146690000Y-68505000D01*
X154310000Y-76760000D02*
X146690000Y-76760000D01*
X154310000Y-68505000D02*
X154310000Y-76760000D01*
X146690000Y-68505000D02*
X154310000Y-68505000D01*
X141610000Y-70410000D02*
X146690000Y-70410000D01*
X154310000Y-70410000D02*
X159390000Y-70410000D01*
X176864761Y-91107619D02*
X176769523Y-91060000D01*
X176674285Y-90964761D01*
X176531428Y-90821904D01*
X176436190Y-90774285D01*
X176340952Y-90774285D01*
X176388571Y-91012380D02*
X176293333Y-90964761D01*
X176198095Y-90869523D01*
X176150476Y-90679047D01*
X176150476Y-90345714D01*
X176198095Y-90155238D01*
X176293333Y-90060000D01*
X176388571Y-90012380D01*
X176579047Y-90012380D01*
X176674285Y-90060000D01*
X176769523Y-90155238D01*
X176817142Y-90345714D01*
X176817142Y-90679047D01*
X176769523Y-90869523D01*
X176674285Y-90964761D01*
X176579047Y-91012380D01*
X176388571Y-91012380D01*
X177769523Y-91012380D02*
X177198095Y-91012380D01*
X177483809Y-91012380D02*
X177483809Y-90012380D01*
X177388571Y-90155238D01*
X177293333Y-90250476D01*
X177198095Y-90298095D01*
X124782380Y-101563333D02*
X125496666Y-101563333D01*
X125639523Y-101610952D01*
X125734761Y-101706190D01*
X125782380Y-101849047D01*
X125782380Y-101944285D01*
X125115714Y-100658571D02*
X125782380Y-100658571D01*
X124734761Y-100896666D02*
X125449047Y-101134761D01*
X125449047Y-100515714D01*
X122122380Y-66539523D02*
X122836666Y-66539523D01*
X122979523Y-66587142D01*
X123074761Y-66682380D01*
X123122380Y-66825238D01*
X123122380Y-66920476D01*
X123122380Y-65539523D02*
X123122380Y-66110952D01*
X123122380Y-65825238D02*
X122122380Y-65825238D01*
X122265238Y-65920476D01*
X122360476Y-66015714D01*
X122408095Y-66110952D01*
X122122380Y-65206190D02*
X122122380Y-64587142D01*
X122503333Y-64920476D01*
X122503333Y-64777619D01*
X122550952Y-64682380D01*
X122598571Y-64634761D01*
X122693809Y-64587142D01*
X122931904Y-64587142D01*
X123027142Y-64634761D01*
X123074761Y-64682380D01*
X123122380Y-64777619D01*
X123122380Y-65063333D01*
X123074761Y-65158571D01*
X123027142Y-65206190D01*
X173143333Y-75142380D02*
X172810000Y-74666190D01*
X172571904Y-75142380D02*
X172571904Y-74142380D01*
X172952857Y-74142380D01*
X173048095Y-74190000D01*
X173095714Y-74237619D01*
X173143333Y-74332857D01*
X173143333Y-74475714D01*
X173095714Y-74570952D01*
X173048095Y-74618571D01*
X172952857Y-74666190D01*
X172571904Y-74666190D01*
X174095714Y-75142380D02*
X173524285Y-75142380D01*
X173810000Y-75142380D02*
X173810000Y-74142380D01*
X173714761Y-74285238D01*
X173619523Y-74380476D01*
X173524285Y-74428095D01*
X140722380Y-51101904D02*
X141531904Y-51101904D01*
X141627142Y-51054285D01*
X141674761Y-51006666D01*
X141722380Y-50911428D01*
X141722380Y-50720952D01*
X141674761Y-50625714D01*
X141627142Y-50578095D01*
X141531904Y-50530476D01*
X140722380Y-50530476D01*
X141722380Y-49530476D02*
X141722380Y-50101904D01*
X141722380Y-49816190D02*
X140722380Y-49816190D01*
X140865238Y-49911428D01*
X140960476Y-50006666D01*
X141008095Y-50101904D01*
X173143333Y-79642380D02*
X172810000Y-79166190D01*
X172571904Y-79642380D02*
X172571904Y-78642380D01*
X172952857Y-78642380D01*
X173048095Y-78690000D01*
X173095714Y-78737619D01*
X173143333Y-78832857D01*
X173143333Y-78975714D01*
X173095714Y-79070952D01*
X173048095Y-79118571D01*
X172952857Y-79166190D01*
X172571904Y-79166190D01*
X173524285Y-78737619D02*
X173571904Y-78690000D01*
X173667142Y-78642380D01*
X173905238Y-78642380D01*
X174000476Y-78690000D01*
X174048095Y-78737619D01*
X174095714Y-78832857D01*
X174095714Y-78928095D01*
X174048095Y-79070952D01*
X173476666Y-79642380D01*
X174095714Y-79642380D01*
X174960476Y-97782380D02*
X174960476Y-98496666D01*
X174912857Y-98639523D01*
X174817619Y-98734761D01*
X174674761Y-98782380D01*
X174579523Y-98782380D01*
X175960476Y-98782380D02*
X175389047Y-98782380D01*
X175674761Y-98782380D02*
X175674761Y-97782380D01*
X175579523Y-97925238D01*
X175484285Y-98020476D01*
X175389047Y-98068095D01*
X176341428Y-97877619D02*
X176389047Y-97830000D01*
X176484285Y-97782380D01*
X176722380Y-97782380D01*
X176817619Y-97830000D01*
X176865238Y-97877619D01*
X176912857Y-97972857D01*
X176912857Y-98068095D01*
X176865238Y-98210952D01*
X176293809Y-98782380D01*
X176912857Y-98782380D01*
X128190476Y-79122380D02*
X128190476Y-79836666D01*
X128142857Y-79979523D01*
X128047619Y-80074761D01*
X127904761Y-80122380D01*
X127809523Y-80122380D01*
X129190476Y-80122380D02*
X128619047Y-80122380D01*
X128904761Y-80122380D02*
X128904761Y-79122380D01*
X128809523Y-79265238D01*
X128714285Y-79360476D01*
X128619047Y-79408095D01*
X130142857Y-80122380D02*
X129571428Y-80122380D01*
X129857142Y-80122380D02*
X129857142Y-79122380D01*
X129761904Y-79265238D01*
X129666666Y-79360476D01*
X129571428Y-79408095D01*
X131690476Y-79122380D02*
X131690476Y-79836666D01*
X131642857Y-79979523D01*
X131547619Y-80074761D01*
X131404761Y-80122380D01*
X131309523Y-80122380D01*
X132690476Y-80122380D02*
X132119047Y-80122380D01*
X132404761Y-80122380D02*
X132404761Y-79122380D01*
X132309523Y-79265238D01*
X132214285Y-79360476D01*
X132119047Y-79408095D01*
X133309523Y-79122380D02*
X133404761Y-79122380D01*
X133500000Y-79170000D01*
X133547619Y-79217619D01*
X133595238Y-79312857D01*
X133642857Y-79503333D01*
X133642857Y-79741428D01*
X133595238Y-79931904D01*
X133547619Y-80027142D01*
X133500000Y-80074761D01*
X133404761Y-80122380D01*
X133309523Y-80122380D01*
X133214285Y-80074761D01*
X133166666Y-80027142D01*
X133119047Y-79931904D01*
X133071428Y-79741428D01*
X133071428Y-79503333D01*
X133119047Y-79312857D01*
X133166666Y-79217619D01*
X133214285Y-79170000D01*
X133309523Y-79122380D01*
X168282380Y-93563333D02*
X168996666Y-93563333D01*
X169139523Y-93610952D01*
X169234761Y-93706190D01*
X169282380Y-93849047D01*
X169282380Y-93944285D01*
X169282380Y-93039523D02*
X169282380Y-92849047D01*
X169234761Y-92753809D01*
X169187142Y-92706190D01*
X169044285Y-92610952D01*
X168853809Y-92563333D01*
X168472857Y-92563333D01*
X168377619Y-92610952D01*
X168330000Y-92658571D01*
X168282380Y-92753809D01*
X168282380Y-92944285D01*
X168330000Y-93039523D01*
X168377619Y-93087142D01*
X168472857Y-93134761D01*
X168710952Y-93134761D01*
X168806190Y-93087142D01*
X168853809Y-93039523D01*
X168901428Y-92944285D01*
X168901428Y-92753809D01*
X168853809Y-92658571D01*
X168806190Y-92610952D01*
X168710952Y-92563333D01*
X135666666Y-79122380D02*
X135666666Y-79836666D01*
X135619047Y-79979523D01*
X135523809Y-80074761D01*
X135380952Y-80122380D01*
X135285714Y-80122380D01*
X136285714Y-79550952D02*
X136190476Y-79503333D01*
X136142857Y-79455714D01*
X136095238Y-79360476D01*
X136095238Y-79312857D01*
X136142857Y-79217619D01*
X136190476Y-79170000D01*
X136285714Y-79122380D01*
X136476190Y-79122380D01*
X136571428Y-79170000D01*
X136619047Y-79217619D01*
X136666666Y-79312857D01*
X136666666Y-79360476D01*
X136619047Y-79455714D01*
X136571428Y-79503333D01*
X136476190Y-79550952D01*
X136285714Y-79550952D01*
X136190476Y-79598571D01*
X136142857Y-79646190D01*
X136095238Y-79741428D01*
X136095238Y-79931904D01*
X136142857Y-80027142D01*
X136190476Y-80074761D01*
X136285714Y-80122380D01*
X136476190Y-80122380D01*
X136571428Y-80074761D01*
X136619047Y-80027142D01*
X136666666Y-79931904D01*
X136666666Y-79741428D01*
X136619047Y-79646190D01*
X136571428Y-79598571D01*
X136476190Y-79550952D01*
X166166666Y-96622380D02*
X166166666Y-97336666D01*
X166119047Y-97479523D01*
X166023809Y-97574761D01*
X165880952Y-97622380D01*
X165785714Y-97622380D01*
X166547619Y-96622380D02*
X167214285Y-96622380D01*
X166785714Y-97622380D01*
X122122380Y-73603333D02*
X122836666Y-73603333D01*
X122979523Y-73650952D01*
X123074761Y-73746190D01*
X123122380Y-73889047D01*
X123122380Y-73984285D01*
X122122380Y-72698571D02*
X122122380Y-72889047D01*
X122170000Y-72984285D01*
X122217619Y-73031904D01*
X122360476Y-73127142D01*
X122550952Y-73174761D01*
X122931904Y-73174761D01*
X123027142Y-73127142D01*
X123074761Y-73079523D01*
X123122380Y-72984285D01*
X123122380Y-72793809D01*
X123074761Y-72698571D01*
X123027142Y-72650952D01*
X122931904Y-72603333D01*
X122693809Y-72603333D01*
X122598571Y-72650952D01*
X122550952Y-72698571D01*
X122503333Y-72793809D01*
X122503333Y-72984285D01*
X122550952Y-73079523D01*
X122598571Y-73127142D01*
X122693809Y-73174761D01*
X120122380Y-94063333D02*
X120836666Y-94063333D01*
X120979523Y-94110952D01*
X121074761Y-94206190D01*
X121122380Y-94349047D01*
X121122380Y-94444285D01*
X120122380Y-93110952D02*
X120122380Y-93587142D01*
X120598571Y-93634761D01*
X120550952Y-93587142D01*
X120503333Y-93491904D01*
X120503333Y-93253809D01*
X120550952Y-93158571D01*
X120598571Y-93110952D01*
X120693809Y-93063333D01*
X120931904Y-93063333D01*
X121027142Y-93110952D01*
X121074761Y-93158571D01*
X121122380Y-93253809D01*
X121122380Y-93491904D01*
X121074761Y-93587142D01*
X121027142Y-93634761D01*
X171782380Y-69563333D02*
X172496666Y-69563333D01*
X172639523Y-69610952D01*
X172734761Y-69706190D01*
X172782380Y-69849047D01*
X172782380Y-69944285D01*
X171782380Y-69182380D02*
X171782380Y-68563333D01*
X172163333Y-68896666D01*
X172163333Y-68753809D01*
X172210952Y-68658571D01*
X172258571Y-68610952D01*
X172353809Y-68563333D01*
X172591904Y-68563333D01*
X172687142Y-68610952D01*
X172734761Y-68658571D01*
X172782380Y-68753809D01*
X172782380Y-69039523D01*
X172734761Y-69134761D01*
X172687142Y-69182380D01*
X178782380Y-69563333D02*
X179496666Y-69563333D01*
X179639523Y-69610952D01*
X179734761Y-69706190D01*
X179782380Y-69849047D01*
X179782380Y-69944285D01*
X178877619Y-69134761D02*
X178830000Y-69087142D01*
X178782380Y-68991904D01*
X178782380Y-68753809D01*
X178830000Y-68658571D01*
X178877619Y-68610952D01*
X178972857Y-68563333D01*
X179068095Y-68563333D01*
X179210952Y-68610952D01*
X179782380Y-69182380D01*
X179782380Y-68563333D01*
X175282380Y-69563333D02*
X175996666Y-69563333D01*
X176139523Y-69610952D01*
X176234761Y-69706190D01*
X176282380Y-69849047D01*
X176282380Y-69944285D01*
X176282380Y-68563333D02*
X176282380Y-69134761D01*
X176282380Y-68849047D02*
X175282380Y-68849047D01*
X175425238Y-68944285D01*
X175520476Y-69039523D01*
X175568095Y-69134761D01*
X149642857Y-115060000D02*
X150214285Y-115060000D01*
X149528571Y-115402857D02*
X149928571Y-114202857D01*
X150328571Y-115402857D01*
X151357142Y-115402857D02*
X150671428Y-115402857D01*
X151014285Y-115402857D02*
X151014285Y-114202857D01*
X150900000Y-114374285D01*
X150785714Y-114488571D01*
X150671428Y-114545714D01*
M02*
