G04 #@! TF.GenerationSoftware,KiCad,Pcbnew,(5.1.5)-3*
G04 #@! TF.CreationDate,2020-04-08T14:30:32+03:00*
G04 #@! TF.ProjectId,Receiver,52656365-6976-4657-922e-6b696361645f,rev?*
G04 #@! TF.SameCoordinates,Original*
G04 #@! TF.FileFunction,Copper,L2,Bot*
G04 #@! TF.FilePolarity,Positive*
%FSLAX46Y46*%
G04 Gerber Fmt 4.6, Leading zero omitted, Abs format (unit mm)*
G04 Created by KiCad (PCBNEW (5.1.5)-3) date 2020-04-08 14:30:32*
%MOMM*%
%LPD*%
G04 APERTURE LIST*
%ADD10O,1.700000X2.000000*%
%ADD11R,2.000000X2.000000*%
%ADD12O,2.000000X1.700000*%
%ADD13C,2.000000*%
%ADD14O,2.000000X2.000000*%
%ADD15O,2.200000X1.700000*%
%ADD16C,0.800000*%
%ADD17C,2.500000*%
%ADD18C,1.000000*%
G04 APERTURE END LIST*
D10*
X176960000Y-87000000D03*
X174420000Y-87000000D03*
D11*
X179500000Y-87000000D03*
X123000000Y-102500000D03*
D12*
X123000000Y-99960000D03*
D11*
X125000000Y-64460000D03*
D12*
X125000000Y-67000000D03*
D13*
X169500000Y-77000000D03*
D14*
X177120000Y-77000000D03*
D10*
X145080000Y-60500000D03*
X145080000Y-63040000D03*
X142540000Y-60500000D03*
X142540000Y-63040000D03*
X140000000Y-60500000D03*
X140000000Y-63040000D03*
X137460000Y-60500000D03*
D11*
X137460000Y-63040000D03*
D13*
X169500000Y-81500000D03*
D14*
X177120000Y-81500000D03*
D11*
X174500000Y-96000000D03*
D10*
X177040000Y-96000000D03*
D11*
X129000000Y-82000000D03*
D12*
X129000000Y-84540000D03*
X129000000Y-87080000D03*
X129000000Y-89620000D03*
X129000000Y-92160000D03*
D11*
X132500000Y-82000000D03*
D12*
X132500000Y-84540000D03*
X132500000Y-87080000D03*
X132500000Y-89620000D03*
X132500000Y-92160000D03*
D11*
X166500000Y-94500000D03*
D12*
X166500000Y-91960000D03*
D11*
X136000000Y-82000000D03*
D12*
X136000000Y-84540000D03*
X136000000Y-87080000D03*
X136000000Y-89620000D03*
X136000000Y-92160000D03*
D11*
X166500000Y-99500000D03*
D12*
X166500000Y-102040000D03*
X166500000Y-104580000D03*
D11*
X125000000Y-72000000D03*
D12*
X125000000Y-74540000D03*
D11*
X123000000Y-92460000D03*
D12*
X123000000Y-95000000D03*
D11*
X170000000Y-70500000D03*
D12*
X170000000Y-67960000D03*
D11*
X177000000Y-70500000D03*
D12*
X177000000Y-67960000D03*
D11*
X173500000Y-70500000D03*
D12*
X173500000Y-67960000D03*
D15*
X158120000Y-74220000D03*
X142880000Y-74220000D03*
X158120000Y-76760000D03*
X142880000Y-76760000D03*
X158120000Y-79300000D03*
X142880000Y-79300000D03*
X158120000Y-81840000D03*
X142880000Y-81840000D03*
X158120000Y-84380000D03*
X142880000Y-84380000D03*
X158120000Y-86920000D03*
X142880000Y-86920000D03*
X158120000Y-89460000D03*
X142880000Y-89460000D03*
X158120000Y-92000000D03*
X142880000Y-92000000D03*
X158120000Y-94540000D03*
X142880000Y-94540000D03*
X158120000Y-97080000D03*
X142880000Y-97080000D03*
X158120000Y-99620000D03*
X142880000Y-99620000D03*
X158120000Y-102160000D03*
X142880000Y-102160000D03*
X158120000Y-104700000D03*
X142880000Y-104700000D03*
X158120000Y-107240000D03*
X142880000Y-107240000D03*
D11*
X158120000Y-109780000D03*
D15*
X142880000Y-109780000D03*
D16*
X146000000Y-67000000D03*
D17*
X146000000Y-67000000D03*
X146500000Y-74500000D03*
X149500000Y-60500000D03*
X150000000Y-66500000D03*
X168500000Y-84500000D03*
X172000000Y-89000000D03*
X170500000Y-105500000D03*
X171000000Y-99500000D03*
X152000000Y-106500000D03*
X154000000Y-70500000D03*
X155000000Y-66500000D03*
X164000000Y-63000000D03*
X128500000Y-67500000D03*
X136500000Y-68000000D03*
X126000000Y-97000000D03*
X132500000Y-97500000D03*
X135500000Y-103500000D03*
X135500000Y-109500000D03*
D18*
X145080000Y-63040000D02*
X155540000Y-63040000D01*
X158120000Y-65620000D02*
X158120000Y-74220000D01*
X155540000Y-63040000D02*
X158120000Y-65620000D01*
X142540000Y-63040000D02*
X142540000Y-64960000D01*
X142540000Y-64960000D02*
X143500000Y-65920000D01*
X143500000Y-65920000D02*
X143500000Y-66000000D01*
X143500000Y-66000000D02*
X144500000Y-67000000D01*
X144500000Y-67000000D02*
X145500000Y-67000000D01*
X145500000Y-67000000D02*
X146000000Y-67000000D01*
X146000000Y-67000000D02*
X146000000Y-67000000D01*
X146000000Y-67000000D02*
X146000000Y-67000000D01*
X146500000Y-74500000D02*
X146000000Y-74000000D01*
X145780000Y-74220000D02*
X142880000Y-74220000D01*
X146000000Y-74000000D02*
X145780000Y-74220000D01*
X142540000Y-60500000D02*
X142540000Y-59040000D01*
X142540000Y-59040000D02*
X143580000Y-58000000D01*
X143580000Y-58000000D02*
X146500000Y-58000000D01*
X146500000Y-58000000D02*
X149000000Y-60500000D01*
X149000000Y-60500000D02*
X149500000Y-60500000D01*
X149500000Y-60500000D02*
X149500000Y-60500000D01*
X151249999Y-67749999D02*
X151249999Y-75249999D01*
X150000000Y-66500000D02*
X151249999Y-67749999D01*
X152760000Y-76760000D02*
X158120000Y-76760000D01*
X151249999Y-75249999D02*
X152760000Y-76760000D01*
X140000000Y-63040000D02*
X140000000Y-66000000D01*
X140000000Y-66000000D02*
X143500000Y-69500000D01*
X143500000Y-69500000D02*
X148000000Y-69500000D01*
X148000000Y-69500000D02*
X149000000Y-70500000D01*
X149000000Y-70500000D02*
X149000000Y-78500000D01*
X152340000Y-81840000D02*
X158120000Y-81840000D01*
X149000000Y-78500000D02*
X152340000Y-81840000D01*
X136000000Y-82000000D02*
X140000000Y-82000000D01*
X140160000Y-81840000D02*
X142880000Y-81840000D01*
X140000000Y-82000000D02*
X140160000Y-81840000D01*
X161500000Y-65500000D02*
X161500000Y-83100000D01*
X157000000Y-61000000D02*
X161500000Y-65500000D01*
X161500000Y-83100000D02*
X160220000Y-84380000D01*
X153000000Y-59500000D02*
X154500000Y-61000000D01*
X160220000Y-84380000D02*
X158120000Y-84380000D01*
X140000000Y-58500000D02*
X142000000Y-56500000D01*
X142000000Y-56500000D02*
X150500000Y-56500000D01*
X154500000Y-61000000D02*
X157000000Y-61000000D01*
X150500000Y-56500000D02*
X153000000Y-59000000D01*
X140000000Y-60500000D02*
X140000000Y-58500000D01*
X153000000Y-59000000D02*
X153000000Y-59500000D01*
X136000000Y-84540000D02*
X138460000Y-84540000D01*
X138620000Y-84380000D02*
X142880000Y-84380000D01*
X138460000Y-84540000D02*
X138620000Y-84380000D01*
X163500000Y-69000000D02*
X164540000Y-67960000D01*
X163500000Y-84000000D02*
X163500000Y-69000000D01*
X158120000Y-86920000D02*
X160580000Y-86920000D01*
X164540000Y-67960000D02*
X170000000Y-67960000D01*
X160580000Y-86920000D02*
X163500000Y-84000000D01*
X136000000Y-87080000D02*
X138420000Y-87080000D01*
X138580000Y-86920000D02*
X142880000Y-86920000D01*
X138420000Y-87080000D02*
X138580000Y-86920000D01*
X165500000Y-71000000D02*
X166000000Y-70500000D01*
X165500000Y-84920000D02*
X165500000Y-71000000D01*
X166000000Y-70500000D02*
X170000000Y-70500000D01*
X158120000Y-89460000D02*
X160960000Y-89460000D01*
X160960000Y-89460000D02*
X165500000Y-84920000D01*
X136000000Y-89620000D02*
X138380000Y-89620000D01*
X138540000Y-89460000D02*
X142880000Y-89460000D01*
X138380000Y-89620000D02*
X138540000Y-89460000D01*
X137202081Y-92160000D02*
X137862081Y-91500000D01*
X136000000Y-92160000D02*
X137202081Y-92160000D01*
X138362081Y-92000000D02*
X142880000Y-92000000D01*
X137862081Y-91500000D02*
X138362081Y-92000000D01*
X175500000Y-77000000D02*
X177120000Y-77000000D01*
X174500000Y-82000000D02*
X174500000Y-78000000D01*
X160220000Y-97080000D02*
X160300000Y-97000000D01*
X158120000Y-97080000D02*
X160220000Y-97080000D01*
X174500000Y-78000000D02*
X175500000Y-77000000D01*
X169000000Y-97000000D02*
X169500000Y-96500000D01*
X160300000Y-97000000D02*
X169000000Y-97000000D01*
X169500000Y-87000000D02*
X174500000Y-82000000D01*
X169500000Y-96500000D02*
X169500000Y-87000000D01*
X166380000Y-99620000D02*
X166500000Y-99500000D01*
X158120000Y-99620000D02*
X166380000Y-99620000D01*
X129000000Y-82000000D02*
X129000000Y-92160000D01*
X134960000Y-63040000D02*
X137460000Y-63040000D01*
X133000000Y-74500000D02*
X133000000Y-65000000D01*
X129000000Y-82000000D02*
X129000000Y-78500000D01*
X129000000Y-78500000D02*
X133000000Y-74500000D01*
X177000000Y-67960000D02*
X177000000Y-70500000D01*
X169500000Y-81500000D02*
X167500000Y-79500000D01*
X167500000Y-79500000D02*
X167500000Y-74500000D01*
X177000000Y-72350000D02*
X176350000Y-73000000D01*
X177000000Y-70500000D02*
X177000000Y-72350000D01*
X176350000Y-73000000D02*
X174500000Y-73000000D01*
X174500000Y-73000000D02*
X173000000Y-74500000D01*
X173000000Y-74500000D02*
X167500000Y-74500000D01*
X162640000Y-104580000D02*
X166500000Y-104580000D01*
X158120000Y-102160000D02*
X160220000Y-102160000D01*
X160220000Y-102160000D02*
X162640000Y-104580000D01*
X150060000Y-102160000D02*
X158120000Y-102160000D01*
X142880000Y-107240000D02*
X144980000Y-107240000D01*
X144980000Y-107240000D02*
X150060000Y-102160000D01*
X133000000Y-65000000D02*
X134500000Y-63500000D01*
X134500000Y-63500000D02*
X134960000Y-63040000D01*
X169500000Y-81500000D02*
X169500000Y-83500000D01*
X169500000Y-83500000D02*
X168500000Y-84500000D01*
X168500000Y-84500000D02*
X168500000Y-84500000D01*
X125849999Y-75389999D02*
X126889999Y-75389999D01*
X125000000Y-74540000D02*
X125849999Y-75389999D01*
X129000000Y-77500000D02*
X129000000Y-78500000D01*
X126889999Y-75389999D02*
X129000000Y-77500000D01*
X123540000Y-74540000D02*
X125000000Y-74540000D01*
X122000000Y-73000000D02*
X123540000Y-74540000D01*
X125000000Y-67000000D02*
X122000000Y-70000000D01*
X122000000Y-70000000D02*
X122000000Y-73000000D01*
X123000000Y-95000000D02*
X123000000Y-99960000D01*
X123000000Y-99960000D02*
X125960000Y-99960000D01*
X125960000Y-99960000D02*
X127500000Y-101500000D01*
X127500000Y-101500000D02*
X127500000Y-102000000D01*
X132740000Y-107240000D02*
X142880000Y-107240000D01*
X127500000Y-102000000D02*
X132740000Y-107240000D01*
X129000000Y-100500000D02*
X127500000Y-102000000D01*
X129000000Y-92160000D02*
X129000000Y-100500000D01*
X167349999Y-105429999D02*
X169929999Y-105429999D01*
X166500000Y-104580000D02*
X167349999Y-105429999D01*
X169929999Y-105429999D02*
X170000000Y-105500000D01*
X170000000Y-105500000D02*
X170500000Y-105500000D01*
X170500000Y-105500000D02*
X170500000Y-105500000D01*
X171000000Y-97732234D02*
X172000000Y-96732234D01*
X171000000Y-99500000D02*
X171000000Y-97732234D01*
X172000000Y-96732234D02*
X172000000Y-89000000D01*
X174420000Y-87000000D02*
X174420000Y-88920000D01*
X174340000Y-89000000D02*
X172000000Y-89000000D01*
X174420000Y-88920000D02*
X174340000Y-89000000D01*
X132500000Y-82000000D02*
X132500000Y-92160000D01*
X173500000Y-67960000D02*
X173500000Y-70500000D01*
X144980000Y-109780000D02*
X145200000Y-110000000D01*
X142880000Y-109780000D02*
X144980000Y-109780000D01*
X145200000Y-110000000D02*
X148500000Y-110000000D01*
X148500000Y-110000000D02*
X152000000Y-106500000D01*
X152000000Y-106500000D02*
X152000000Y-106500000D01*
X154000000Y-68732234D02*
X155000000Y-67732234D01*
X154000000Y-70500000D02*
X154000000Y-68732234D01*
X155000000Y-67732234D02*
X155000000Y-66500000D01*
X155000000Y-66500000D02*
X155000000Y-66500000D01*
X164000000Y-63000000D02*
X172500000Y-63000000D01*
X173500000Y-64000000D02*
X173500000Y-67960000D01*
X172500000Y-63000000D02*
X173500000Y-64000000D01*
X137280000Y-109780000D02*
X142880000Y-109780000D01*
X125000000Y-64460000D02*
X127960000Y-64460000D01*
X127960000Y-64460000D02*
X128500000Y-65000000D01*
X128500000Y-65000000D02*
X128500000Y-67500000D01*
X128500000Y-67500000D02*
X128500000Y-67500000D01*
X136500000Y-69767766D02*
X135500000Y-70767766D01*
X136500000Y-68000000D02*
X136500000Y-69767766D01*
X135500000Y-70767766D02*
X135500000Y-76000000D01*
X132500000Y-79000000D02*
X132500000Y-82000000D01*
X135500000Y-76000000D02*
X132500000Y-79000000D01*
X123000000Y-92460000D02*
X124960000Y-92460000D01*
X124960000Y-92460000D02*
X126000000Y-93500000D01*
X126000000Y-93500000D02*
X126000000Y-97000000D01*
X126000000Y-97000000D02*
X126000000Y-97000000D01*
X132500000Y-97500000D02*
X132500000Y-92160000D01*
X132500000Y-99267766D02*
X135500000Y-102267766D01*
X132500000Y-97500000D02*
X132500000Y-99267766D01*
X135500000Y-102267766D02*
X135500000Y-103500000D01*
X135500000Y-103500000D02*
X135500000Y-103500000D01*
X137280000Y-109512234D02*
X137280000Y-109780000D01*
X137267766Y-109500000D02*
X137280000Y-109512234D01*
X135500000Y-109500000D02*
X137267766Y-109500000D01*
X152000000Y-109000000D02*
X152000000Y-106500000D01*
X155500000Y-112500000D02*
X152000000Y-109000000D01*
X170500000Y-112500000D02*
X155500000Y-112500000D01*
X173000000Y-110000000D02*
X170500000Y-112500000D01*
X169040000Y-102040000D02*
X169500000Y-102500000D01*
X172000000Y-102500000D02*
X173000000Y-103500000D01*
X166500000Y-102040000D02*
X169040000Y-102040000D01*
X173000000Y-103500000D02*
X173000000Y-110000000D01*
X169500000Y-102500000D02*
X172000000Y-102500000D01*
X123000000Y-104350000D02*
X128000000Y-109350000D01*
X123000000Y-102500000D02*
X123000000Y-104350000D01*
X128000000Y-109350000D02*
X128000000Y-110500000D01*
X128000000Y-110500000D02*
X131500000Y-114000000D01*
X131500000Y-114000000D02*
X172000000Y-114000000D01*
X172000000Y-114000000D02*
X174500000Y-111500000D01*
X174500000Y-111500000D02*
X174500000Y-96000000D01*
X135000000Y-60500000D02*
X137460000Y-60500000D01*
X125000000Y-72000000D02*
X129500000Y-72000000D01*
X129500000Y-72000000D02*
X131000000Y-70500000D01*
X131000000Y-70500000D02*
X131000000Y-63000000D01*
X131000000Y-63000000D02*
X133500000Y-60500000D01*
X133500000Y-60500000D02*
X135000000Y-60500000D01*
X166460000Y-92000000D02*
X166500000Y-91960000D01*
X158120000Y-92000000D02*
X166460000Y-92000000D01*
X177040000Y-94000000D02*
X178000000Y-93040000D01*
X177040000Y-96000000D02*
X177040000Y-94000000D01*
X178000000Y-93040000D02*
X178000000Y-91500000D01*
X179500000Y-90000000D02*
X179500000Y-87000000D01*
X178000000Y-91500000D02*
X179500000Y-90000000D01*
X173000000Y-77000000D02*
X169500000Y-77000000D01*
X175000000Y-75000000D02*
X173000000Y-77000000D01*
X177919999Y-80700001D02*
X177919999Y-80580001D01*
X179500000Y-75000000D02*
X175000000Y-75000000D01*
X177120000Y-81500000D02*
X177919999Y-80700001D01*
X179500000Y-79000000D02*
X179500000Y-75000000D01*
X177919999Y-80580001D02*
X179500000Y-79000000D01*
X176960000Y-87000000D02*
X176960000Y-84040000D01*
X177120000Y-83880000D02*
X177120000Y-81500000D01*
X176960000Y-84040000D02*
X177120000Y-83880000D01*
X166460000Y-94540000D02*
X166500000Y-94500000D01*
X158120000Y-94540000D02*
X166460000Y-94540000D01*
M02*
