G04 #@! TF.GenerationSoftware,KiCad,Pcbnew,(5.1.5)-3*
G04 #@! TF.CreationDate,2020-05-01T16:43:27+03:00*
G04 #@! TF.ProjectId,Transmitter,5472616e-736d-4697-9474-65722e6b6963,rev?*
G04 #@! TF.SameCoordinates,Original*
G04 #@! TF.FileFunction,Copper,L2,Bot*
G04 #@! TF.FilePolarity,Positive*
%FSLAX46Y46*%
G04 Gerber Fmt 4.6, Leading zero omitted, Abs format (unit mm)*
G04 Created by KiCad (PCBNEW (5.1.5)-3) date 2020-05-01 16:43:27*
%MOMM*%
%LPD*%
G04 APERTURE LIST*
%ADD10R,2.000000X3.000000*%
%ADD11O,2.000000X3.000000*%
%ADD12C,2.500000*%
%ADD13O,2.500000X2.500000*%
%ADD14O,1.700000X2.000000*%
%ADD15O,2.000000X2.000000*%
%ADD16R,2.000000X2.000000*%
%ADD17C,3.000000*%
%ADD18O,3.000000X3.000000*%
%ADD19C,5.000000*%
%ADD20R,3.000000X2.000000*%
%ADD21O,3.000000X2.000000*%
%ADD22R,2.000000X2.500000*%
%ADD23C,4.000000*%
%ADD24C,2.000000*%
%ADD25C,1.000000*%
G04 APERTURE END LIST*
D10*
X124500000Y-90500000D03*
D11*
X127040000Y-90500000D03*
X129580000Y-90500000D03*
D12*
X122000000Y-82000000D03*
D13*
X132160000Y-82000000D03*
D12*
X122000000Y-79000000D03*
D13*
X132160000Y-79000000D03*
D12*
X122000000Y-75500000D03*
D13*
X132160000Y-75500000D03*
D14*
X146580000Y-101500000D03*
D15*
X146580000Y-104040000D03*
D14*
X144040000Y-101500000D03*
X144040000Y-104040000D03*
X141500000Y-101500000D03*
X141500000Y-104040000D03*
X138960000Y-101500000D03*
D16*
X138960000Y-104040000D03*
D17*
X119000000Y-72000000D03*
D18*
X134240000Y-72000000D03*
D17*
X122000000Y-67500000D03*
D18*
X132160000Y-67500000D03*
D11*
X190280000Y-112460000D03*
X187740000Y-112460000D03*
X185200000Y-112460000D03*
X182660000Y-112460000D03*
D10*
X180000000Y-112500000D03*
D19*
X175500000Y-84500000D03*
X195500000Y-84500000D03*
X195500000Y-110500000D03*
X175500000Y-110500000D03*
D11*
X109780000Y-112460000D03*
X107240000Y-112460000D03*
X104700000Y-112460000D03*
X102160000Y-112460000D03*
D10*
X99500000Y-112500000D03*
D19*
X95000000Y-84500000D03*
X115000000Y-84500000D03*
X115000000Y-110500000D03*
X95000000Y-110500000D03*
D20*
X110500000Y-98500000D03*
D21*
X110500000Y-101040000D03*
X110500000Y-103580000D03*
D20*
X184000000Y-98500000D03*
D21*
X184000000Y-101040000D03*
X184000000Y-103580000D03*
D16*
X169540000Y-79000000D03*
D14*
X167000000Y-79000000D03*
D10*
X102500000Y-121500000D03*
D11*
X105040000Y-121500000D03*
D16*
X162000000Y-79000000D03*
D14*
X159460000Y-79000000D03*
D10*
X112540000Y-121500000D03*
D11*
X110000000Y-121500000D03*
D22*
X99000000Y-77500000D03*
D11*
X96460000Y-77500000D03*
D16*
X160000000Y-93000000D03*
D14*
X162540000Y-93000000D03*
X165080000Y-93000000D03*
D16*
X160000000Y-89000000D03*
D14*
X162540000Y-89000000D03*
X165080000Y-89000000D03*
D16*
X160000000Y-85000000D03*
D14*
X162540000Y-85000000D03*
X165080000Y-85000000D03*
D22*
X105000000Y-77500000D03*
D11*
X107540000Y-77500000D03*
X128720000Y-114380000D03*
X128720000Y-129620000D03*
X131260000Y-114380000D03*
X131260000Y-129620000D03*
X133800000Y-114380000D03*
X133800000Y-129620000D03*
X136340000Y-114380000D03*
X136340000Y-129620000D03*
X138880000Y-114380000D03*
X138880000Y-129620000D03*
X141420000Y-114380000D03*
X141420000Y-129620000D03*
X143960000Y-114380000D03*
X143960000Y-129620000D03*
X146500000Y-114380000D03*
X146500000Y-129620000D03*
X149040000Y-114380000D03*
X149040000Y-129620000D03*
X151580000Y-114380000D03*
X151580000Y-129620000D03*
X154120000Y-114380000D03*
X154120000Y-129620000D03*
X156660000Y-114380000D03*
X156660000Y-129620000D03*
X159200000Y-114380000D03*
X159200000Y-129620000D03*
X161740000Y-114380000D03*
X161740000Y-129620000D03*
D10*
X164280000Y-114380000D03*
D11*
X164280000Y-129620000D03*
D23*
X86000000Y-129000000D03*
X206000000Y-129000000D03*
X186000000Y-69000000D03*
X106000000Y-69000000D03*
D17*
X198500000Y-77000000D03*
X195500000Y-93000000D03*
X199500000Y-93000000D03*
X195500000Y-97500000D03*
X199500000Y-97500000D03*
X195000000Y-102000000D03*
X199500000Y-102000000D03*
X205500000Y-119500000D03*
X201500000Y-119500000D03*
X201500000Y-123500000D03*
X205500000Y-123500000D03*
X196000000Y-129000000D03*
X93500000Y-130000000D03*
X114500000Y-130000000D03*
X201500000Y-129000000D03*
D24*
X131500000Y-99000000D03*
X131500000Y-106500000D03*
X129000000Y-99000000D03*
X126500000Y-106500000D03*
X134000000Y-99000000D03*
X134000000Y-106500000D03*
X135000000Y-122500000D03*
X123500000Y-122500000D03*
X136500000Y-99000000D03*
X136500000Y-106500000D03*
X136500000Y-120000000D03*
X123500000Y-120000000D03*
X140500000Y-123000000D03*
D17*
X185500000Y-123000000D03*
D24*
X137500000Y-88500000D03*
X142500000Y-88500000D03*
X143500000Y-125500000D03*
D12*
X188000000Y-125500000D03*
D24*
X156000000Y-95000000D03*
X156000000Y-90500000D03*
X137500000Y-85000000D03*
X142500000Y-85500000D03*
X158500000Y-99000000D03*
X137500000Y-81500000D03*
X142500000Y-83000000D03*
X150000000Y-83000000D03*
X151500000Y-95000000D03*
X149750000Y-91250000D03*
D17*
X192000000Y-119000000D03*
D24*
X152500000Y-118500000D03*
X154640000Y-117000000D03*
X123500000Y-117000000D03*
X102000000Y-100000000D03*
X105250000Y-103250000D03*
X162540000Y-97460000D03*
X167960000Y-97460000D03*
D17*
X123500000Y-111000000D03*
D24*
X159500000Y-110500000D03*
X95000000Y-101500000D03*
X99500000Y-104000000D03*
X129000000Y-125260000D03*
X123500000Y-125500000D03*
X120000000Y-125000000D03*
D17*
X120000000Y-101000000D03*
D25*
X148430000Y-104040000D02*
X148470000Y-104000000D01*
X146580000Y-104040000D02*
X148430000Y-104040000D01*
X148470000Y-104000000D02*
X148500000Y-104000000D01*
X148500000Y-104000000D02*
X149500000Y-103000000D01*
X149500000Y-103000000D02*
X149500000Y-100000000D01*
X149500000Y-100000000D02*
X147500000Y-98000000D01*
X147500000Y-98000000D02*
X145000000Y-98000000D01*
X145000000Y-98000000D02*
X141500000Y-94500000D01*
X141500000Y-94500000D02*
X136000000Y-94500000D01*
X136000000Y-94500000D02*
X134500000Y-94500000D01*
X134500000Y-94500000D02*
X131500000Y-97500000D01*
X131500000Y-97500000D02*
X131500000Y-99000000D01*
X131500000Y-99000000D02*
X131500000Y-99000000D01*
X128720000Y-106780000D02*
X128720000Y-114380000D01*
X131500000Y-106500000D02*
X129000000Y-106500000D01*
X129000000Y-106500000D02*
X128720000Y-106780000D01*
X144040000Y-106040000D02*
X144500000Y-106500000D01*
X144040000Y-104040000D02*
X144040000Y-106040000D01*
X144500000Y-106500000D02*
X148500000Y-106500000D01*
X148500000Y-106500000D02*
X149000000Y-106500000D01*
X149000000Y-106500000D02*
X151500000Y-104000000D01*
X151500000Y-104000000D02*
X151500000Y-99000000D01*
X151500000Y-99000000D02*
X148500000Y-96000000D01*
X148500000Y-96000000D02*
X146000000Y-96000000D01*
X146000000Y-96000000D02*
X145500000Y-96000000D01*
X145500000Y-96000000D02*
X142500000Y-93000000D01*
X142500000Y-93000000D02*
X133000000Y-93000000D01*
X133000000Y-93000000D02*
X129000000Y-97000000D01*
X129000000Y-97000000D02*
X129000000Y-99000000D01*
X129000000Y-99000000D02*
X129000000Y-99000000D01*
X126500000Y-107914213D02*
X126000000Y-108414213D01*
X126500000Y-106500000D02*
X126500000Y-107914213D01*
X126870000Y-129620000D02*
X128720000Y-129620000D01*
X126000000Y-128750000D02*
X126870000Y-129620000D01*
X126000000Y-108414213D02*
X126000000Y-128750000D01*
X144040000Y-99500000D02*
X141040000Y-96500000D01*
X144040000Y-101500000D02*
X144040000Y-99500000D01*
X141040000Y-96500000D02*
X135500000Y-96500000D01*
X135500000Y-96500000D02*
X134000000Y-98000000D01*
X134000000Y-98000000D02*
X134000000Y-99000000D01*
X134000000Y-99000000D02*
X134000000Y-99000000D01*
X134000000Y-107914213D02*
X132914213Y-109000000D01*
X134000000Y-106500000D02*
X134000000Y-107914213D01*
X132914213Y-109000000D02*
X132000000Y-109000000D01*
X131260000Y-109740000D02*
X131260000Y-114380000D01*
X132000000Y-109000000D02*
X131260000Y-109740000D01*
X104700000Y-114960000D02*
X105240000Y-115500000D01*
X104700000Y-112460000D02*
X104700000Y-114960000D01*
X121500000Y-122500000D02*
X123500000Y-122500000D01*
X117000000Y-118000000D02*
X121500000Y-122500000D01*
X105240000Y-115500000D02*
X105500000Y-115500000D01*
X105500000Y-115500000D02*
X107000000Y-117000000D01*
X112000000Y-118000000D02*
X117000000Y-118000000D01*
X107000000Y-117000000D02*
X111000000Y-117000000D01*
X111000000Y-117000000D02*
X112000000Y-118000000D01*
X136340000Y-127520000D02*
X135000000Y-126180000D01*
X136340000Y-129620000D02*
X136340000Y-127520000D01*
X135000000Y-126180000D02*
X135000000Y-122500000D01*
X135000000Y-122500000D02*
X135000000Y-122500000D01*
X123500000Y-122500000D02*
X123500000Y-122500000D01*
X141500000Y-101500000D02*
X141500000Y-100000000D01*
X141500000Y-100000000D02*
X140000000Y-98500000D01*
X140000000Y-98500000D02*
X137000000Y-98500000D01*
X137000000Y-98500000D02*
X136500000Y-99000000D01*
X136500000Y-99000000D02*
X136500000Y-99000000D01*
X136500000Y-106500000D02*
X136500000Y-108500000D01*
X138880000Y-110880000D02*
X138880000Y-114380000D01*
X136500000Y-108500000D02*
X138880000Y-110880000D01*
X122000000Y-120000000D02*
X123500000Y-120000000D01*
X121000000Y-117000000D02*
X121000000Y-119000000D01*
X120000000Y-116000000D02*
X121000000Y-117000000D01*
X107240000Y-113740000D02*
X109000000Y-115500000D01*
X109000000Y-115500000D02*
X111500000Y-115500000D01*
X112000000Y-116000000D02*
X120000000Y-116000000D01*
X107240000Y-112460000D02*
X107240000Y-113740000D01*
X121000000Y-119000000D02*
X122000000Y-120000000D01*
X111500000Y-115500000D02*
X112000000Y-116000000D01*
X138880000Y-127520000D02*
X138000000Y-126640000D01*
X138880000Y-129620000D02*
X138880000Y-127520000D01*
X138000000Y-126640000D02*
X138000000Y-121500000D01*
X138000000Y-121500000D02*
X136500000Y-120000000D01*
X136500000Y-120000000D02*
X136500000Y-120000000D01*
X123500000Y-120000000D02*
X123500000Y-120000000D01*
X141420000Y-127520000D02*
X140500000Y-126600000D01*
X141420000Y-129620000D02*
X141420000Y-127520000D01*
X140500000Y-126600000D02*
X140500000Y-123000000D01*
X140500000Y-123000000D02*
X140500000Y-123000000D01*
X185200000Y-114960000D02*
X185500000Y-115260000D01*
X185200000Y-112460000D02*
X185200000Y-114960000D01*
X185500000Y-115260000D02*
X185500000Y-123000000D01*
X185500000Y-123000000D02*
X185500000Y-123000000D01*
X143960000Y-112280000D02*
X144000000Y-112240000D01*
X143960000Y-114380000D02*
X143960000Y-112280000D01*
X144000000Y-112240000D02*
X144000000Y-109000000D01*
X144000000Y-109000000D02*
X144500000Y-108500000D01*
X144500000Y-108500000D02*
X150000000Y-108500000D01*
X150000000Y-108500000D02*
X154000000Y-104500000D01*
X154000000Y-104500000D02*
X154000000Y-93500000D01*
X154500000Y-93000000D02*
X160000000Y-93000000D01*
X136660000Y-88500000D02*
X137500000Y-88500000D01*
X137500000Y-88500000D02*
X137500000Y-88500000D01*
X142500000Y-88500000D02*
X152000000Y-88500000D01*
X152000000Y-88500000D02*
X152500000Y-89000000D01*
X152500000Y-89000000D02*
X152500000Y-91500000D01*
X154000000Y-93500000D02*
X154000000Y-93000000D01*
X152500000Y-91500000D02*
X154000000Y-93000000D01*
X154000000Y-93000000D02*
X154500000Y-93000000D01*
X132160000Y-83414213D02*
X133000000Y-84254213D01*
X132160000Y-82000000D02*
X132160000Y-83414213D01*
X133000000Y-84254213D02*
X133000000Y-86000000D01*
X135500000Y-88500000D02*
X137500000Y-88500000D01*
X133000000Y-86000000D02*
X135500000Y-88500000D01*
X143960000Y-127520000D02*
X143500000Y-127060000D01*
X143960000Y-129620000D02*
X143960000Y-127520000D01*
X143500000Y-127060000D02*
X143500000Y-125500000D01*
X143500000Y-125500000D02*
X143500000Y-125500000D01*
X187740000Y-114960000D02*
X188000000Y-115220000D01*
X187740000Y-112460000D02*
X187740000Y-114960000D01*
X188000000Y-115220000D02*
X188000000Y-125500000D01*
X188000000Y-125500000D02*
X188000000Y-125500000D01*
X146500000Y-114380000D02*
X146500000Y-112280000D01*
X146500000Y-112280000D02*
X146500000Y-111000000D01*
X146500000Y-111000000D02*
X147500000Y-110000000D01*
X147500000Y-110000000D02*
X151000000Y-110000000D01*
X151000000Y-110000000D02*
X156000000Y-105000000D01*
X156000000Y-105000000D02*
X156000000Y-95000000D01*
X156000000Y-95000000D02*
X156000000Y-95000000D01*
X156000000Y-89085787D02*
X156085787Y-89000000D01*
X156000000Y-90500000D02*
X156000000Y-89085787D01*
X156085787Y-89000000D02*
X160000000Y-89000000D01*
X137500000Y-84500000D02*
X137500000Y-85000000D01*
X137500000Y-85000000D02*
X137500000Y-85000000D01*
X142500000Y-85500000D02*
X156000000Y-85500000D01*
X156000000Y-85500000D02*
X156000000Y-90500000D01*
X136000000Y-85000000D02*
X137500000Y-85000000D01*
X135000000Y-84000000D02*
X136000000Y-85000000D01*
X135000000Y-80500000D02*
X135000000Y-84000000D01*
X132160000Y-79000000D02*
X133500000Y-79000000D01*
X133500000Y-79000000D02*
X135000000Y-80500000D01*
X146500000Y-127520000D02*
X146500000Y-129620000D01*
X146500000Y-125000000D02*
X146500000Y-127520000D01*
X150500000Y-121000000D02*
X146500000Y-125000000D01*
X184000000Y-98500000D02*
X180500000Y-98500000D01*
X180500000Y-98500000D02*
X176500000Y-102500000D01*
X167500000Y-107500000D02*
X167500000Y-121000000D01*
X176500000Y-102500000D02*
X172500000Y-102500000D01*
X167500000Y-121000000D02*
X150500000Y-121000000D01*
X172500000Y-102500000D02*
X167500000Y-107500000D01*
X149040000Y-114380000D02*
X149040000Y-112280000D01*
X149220000Y-112280000D02*
X149500000Y-112000000D01*
X149040000Y-112280000D02*
X149220000Y-112280000D01*
X149500000Y-112000000D02*
X149320000Y-112000000D01*
X149500000Y-112000000D02*
X150500000Y-112000000D01*
X150500000Y-112000000D02*
X151000000Y-112000000D01*
X151000000Y-112000000D02*
X151500000Y-112000000D01*
X151500000Y-112000000D02*
X152000000Y-112000000D01*
X152000000Y-112000000D02*
X158500000Y-105500000D01*
X158500000Y-105500000D02*
X158500000Y-99000000D01*
X158500000Y-99000000D02*
X158500000Y-99000000D01*
X137500000Y-81500000D02*
X137500000Y-81500000D01*
X160000000Y-83000000D02*
X160000000Y-85000000D01*
X142500000Y-83000000D02*
X150000000Y-83000000D01*
X150000000Y-83000000D02*
X160000000Y-83000000D01*
X151500000Y-95000000D02*
X150000000Y-93500000D01*
X150000000Y-93500000D02*
X150000000Y-91500000D01*
X150000000Y-91500000D02*
X149750000Y-91250000D01*
X149750000Y-91250000D02*
X149500000Y-91000000D01*
X137500000Y-76500000D02*
X137500000Y-81500000D01*
X132160000Y-75500000D02*
X136500000Y-75500000D01*
X136500000Y-75500000D02*
X137500000Y-76500000D01*
X149040000Y-126460000D02*
X149040000Y-129620000D01*
X152500000Y-123000000D02*
X149040000Y-126460000D01*
X169500000Y-123000000D02*
X152500000Y-123000000D01*
X181540000Y-101040000D02*
X178080000Y-104500000D01*
X184000000Y-101040000D02*
X181540000Y-101040000D01*
X178080000Y-104500000D02*
X173000000Y-104500000D01*
X169500000Y-108000000D02*
X169500000Y-123000000D01*
X173000000Y-104500000D02*
X169500000Y-108000000D01*
X190280000Y-114960000D02*
X192000000Y-116680000D01*
X190280000Y-112460000D02*
X190280000Y-114960000D01*
X192000000Y-116680000D02*
X192000000Y-119000000D01*
X192000000Y-119000000D02*
X192000000Y-119000000D01*
X151580000Y-117580000D02*
X152500000Y-118500000D01*
X151580000Y-114380000D02*
X151580000Y-117580000D01*
X154120000Y-116480000D02*
X154640000Y-117000000D01*
X154120000Y-114380000D02*
X154120000Y-116480000D01*
X154640000Y-117000000D02*
X154640000Y-117000000D01*
X123500000Y-117000000D02*
X123500000Y-117000000D01*
X109780000Y-112460000D02*
X109780000Y-112780000D01*
X123500000Y-115000000D02*
X123500000Y-117000000D01*
X122500000Y-114000000D02*
X123500000Y-115000000D01*
X112500000Y-114000000D02*
X122500000Y-114000000D01*
X109780000Y-112460000D02*
X110960000Y-112460000D01*
X110960000Y-112460000D02*
X112500000Y-114000000D01*
X138960000Y-104040000D02*
X115540000Y-104040000D01*
X115540000Y-104040000D02*
X114000000Y-102500000D01*
X114000000Y-102500000D02*
X114000000Y-102000000D01*
X113040000Y-101040000D02*
X110500000Y-101040000D01*
X114000000Y-102000000D02*
X113040000Y-101040000D01*
X157610000Y-79000000D02*
X156500000Y-77890000D01*
X159460000Y-79000000D02*
X157610000Y-79000000D01*
X156500000Y-77890000D02*
X156500000Y-77000000D01*
X156500000Y-77000000D02*
X158500000Y-75000000D01*
X158500000Y-75000000D02*
X166000000Y-75000000D01*
X167000000Y-76000000D02*
X167000000Y-79000000D01*
X166000000Y-75000000D02*
X167000000Y-76000000D01*
X165080000Y-93000000D02*
X165080000Y-85000000D01*
X171500000Y-76000000D02*
X167000000Y-76000000D01*
X166930000Y-85000000D02*
X167930000Y-84000000D01*
X172500000Y-77000000D02*
X171500000Y-76000000D01*
X165080000Y-85000000D02*
X166930000Y-85000000D01*
X167930000Y-84000000D02*
X169500000Y-84000000D01*
X169500000Y-84000000D02*
X172500000Y-81000000D01*
X172500000Y-81000000D02*
X172500000Y-77000000D01*
X180000000Y-126500000D02*
X180000000Y-112500000D01*
X161740000Y-129620000D02*
X161740000Y-127520000D01*
X161740000Y-127520000D02*
X162260000Y-127000000D01*
X162260000Y-127000000D02*
X179500000Y-127000000D01*
X179500000Y-127000000D02*
X180000000Y-126500000D01*
X165080000Y-99420000D02*
X165080000Y-93000000D01*
X164500000Y-100000000D02*
X165080000Y-99420000D01*
X162000000Y-100000000D02*
X164500000Y-100000000D01*
X161000000Y-101000000D02*
X162000000Y-100000000D01*
X156660000Y-112280000D02*
X156500000Y-112120000D01*
X161000000Y-106000000D02*
X161000000Y-101000000D01*
X156500000Y-112120000D02*
X156500000Y-110500000D01*
X156660000Y-114380000D02*
X156660000Y-112280000D01*
X156500000Y-110500000D02*
X161000000Y-106000000D01*
X178000000Y-93000000D02*
X165080000Y-93000000D01*
X178500000Y-92500000D02*
X178000000Y-93000000D01*
X187500000Y-92500000D02*
X178500000Y-92500000D01*
X167000000Y-132500000D02*
X167500000Y-132000000D01*
X191000000Y-105500000D02*
X190500000Y-105000000D01*
X162520000Y-132500000D02*
X167000000Y-132500000D01*
X161740000Y-131720000D02*
X162520000Y-132500000D01*
X167500000Y-132000000D02*
X187500000Y-132000000D01*
X190500000Y-105000000D02*
X190500000Y-95500000D01*
X200500000Y-107000000D02*
X199000000Y-105500000D01*
X161740000Y-129620000D02*
X161740000Y-131720000D01*
X187500000Y-132000000D02*
X196000000Y-123500000D01*
X190500000Y-95500000D02*
X187500000Y-92500000D01*
X196000000Y-123500000D02*
X196000000Y-119000000D01*
X196000000Y-119000000D02*
X200500000Y-114500000D01*
X200500000Y-114500000D02*
X200500000Y-107000000D01*
X199000000Y-105500000D02*
X191000000Y-105500000D01*
X105040000Y-121500000D02*
X110000000Y-121500000D01*
X122000000Y-82000000D02*
X122000000Y-67500000D01*
X119000000Y-67500000D02*
X122000000Y-67500000D01*
X116500000Y-70000000D02*
X119000000Y-67500000D01*
X116500000Y-72500000D02*
X116500000Y-70000000D01*
X115000000Y-74000000D02*
X116500000Y-72500000D01*
X96460000Y-77500000D02*
X96460000Y-75500000D01*
X96960000Y-75000000D02*
X106000000Y-75000000D01*
X96460000Y-75500000D02*
X96960000Y-75000000D01*
X106000000Y-75000000D02*
X107000000Y-74000000D01*
X107000000Y-74000000D02*
X115000000Y-74000000D01*
X120585787Y-82000000D02*
X118585787Y-80000000D01*
X122000000Y-82000000D02*
X120585787Y-82000000D01*
X118585787Y-80000000D02*
X112500000Y-80000000D01*
X112500000Y-80000000D02*
X110000000Y-82500000D01*
X110000000Y-82500000D02*
X110000000Y-92500000D01*
X110000000Y-92500000D02*
X106500000Y-92500000D01*
X106500000Y-92500000D02*
X101500000Y-97500000D01*
X101500000Y-97500000D02*
X101500000Y-99500000D01*
X101500000Y-99500000D02*
X102000000Y-100000000D01*
X102000000Y-100000000D02*
X102000000Y-100000000D01*
X108460000Y-101040000D02*
X110500000Y-101040000D01*
X107460000Y-101040000D02*
X108460000Y-101040000D01*
X99500000Y-112500000D02*
X99500000Y-109000000D01*
X99500000Y-109000000D02*
X105250000Y-103250000D01*
X105250000Y-103250000D02*
X107460000Y-101040000D01*
X123414213Y-67500000D02*
X125914213Y-65000000D01*
X122000000Y-67500000D02*
X123414213Y-67500000D01*
X125914213Y-65000000D02*
X141000000Y-65000000D01*
X141000000Y-65000000D02*
X153500000Y-77500000D01*
X156000000Y-77500000D02*
X156500000Y-77000000D01*
X153500000Y-77500000D02*
X156000000Y-77500000D01*
X99500000Y-116500000D02*
X99500000Y-112500000D01*
X101500000Y-118500000D02*
X99500000Y-116500000D01*
X104000000Y-118500000D02*
X101500000Y-118500000D01*
X105040000Y-121500000D02*
X105040000Y-119540000D01*
X105040000Y-119540000D02*
X104000000Y-118500000D01*
X162540000Y-85000000D02*
X162540000Y-83000000D01*
X162540000Y-83000000D02*
X163040000Y-82500000D01*
X168540000Y-82000000D02*
X169540000Y-81000000D01*
X163040000Y-82500000D02*
X163040000Y-82460000D01*
X163040000Y-82460000D02*
X163500000Y-82000000D01*
X169540000Y-81000000D02*
X169540000Y-79000000D01*
X163500000Y-82000000D02*
X168540000Y-82000000D01*
X162540000Y-93000000D02*
X162540000Y-85000000D01*
X164280000Y-129620000D02*
X182380000Y-129620000D01*
X182660000Y-129340000D02*
X182660000Y-112460000D01*
X182380000Y-129620000D02*
X182660000Y-129340000D01*
X162540000Y-93000000D02*
X162540000Y-97460000D01*
X162540000Y-97460000D02*
X162540000Y-97460000D01*
X183000000Y-107000000D02*
X182660000Y-107340000D01*
X182660000Y-107340000D02*
X182660000Y-112460000D01*
X188000000Y-107000000D02*
X183000000Y-107000000D01*
X177540000Y-97460000D02*
X180000000Y-95000000D01*
X167960000Y-97460000D02*
X177540000Y-97460000D01*
X180000000Y-95000000D02*
X186500000Y-95000000D01*
X186500000Y-95000000D02*
X188000000Y-96500000D01*
X188000000Y-96500000D02*
X188000000Y-107000000D01*
X108540000Y-103580000D02*
X110500000Y-103580000D01*
X102160000Y-109960000D02*
X108540000Y-103580000D01*
X102160000Y-112460000D02*
X102160000Y-109960000D01*
X110500000Y-105430000D02*
X111070000Y-106000000D01*
X110500000Y-103580000D02*
X110500000Y-105430000D01*
X111070000Y-106000000D02*
X117500000Y-106000000D01*
X117500000Y-106000000D02*
X122500000Y-111000000D01*
X122500000Y-111000000D02*
X123500000Y-111000000D01*
X123500000Y-111000000D02*
X123500000Y-111000000D01*
X159500000Y-110500000D02*
X164500000Y-110500000D01*
X164500000Y-110500000D02*
X164500000Y-107000000D01*
X164500000Y-107000000D02*
X168000000Y-103500000D01*
X167960000Y-103460000D02*
X167960000Y-97460000D01*
X168000000Y-103500000D02*
X167960000Y-103460000D01*
X111000000Y-119000000D02*
X112540000Y-120540000D01*
X102160000Y-112460000D02*
X102160000Y-116160000D01*
X106500000Y-119000000D02*
X111000000Y-119000000D01*
X102160000Y-116160000D02*
X102700009Y-116700009D01*
X102700009Y-116700009D02*
X104200009Y-116700009D01*
X112540000Y-120540000D02*
X112540000Y-121500000D01*
X104200009Y-116700009D02*
X106500000Y-119000000D01*
X162000000Y-79000000D02*
X162000000Y-81000000D01*
X162000000Y-81000000D02*
X140000000Y-81000000D01*
X140000000Y-81000000D02*
X140000000Y-91000000D01*
X140000000Y-91000000D02*
X135000000Y-91000000D01*
X134500000Y-90500000D02*
X129580000Y-90500000D01*
X135000000Y-91000000D02*
X134500000Y-90500000D01*
X129580000Y-87580000D02*
X129580000Y-90500000D01*
X129500000Y-87500000D02*
X129580000Y-87580000D01*
X118000000Y-98500000D02*
X122000000Y-94500000D01*
X110500000Y-98500000D02*
X118000000Y-98500000D01*
X122000000Y-94500000D02*
X122000000Y-88500000D01*
X122000000Y-88500000D02*
X123000000Y-87500000D01*
X123000000Y-87500000D02*
X129500000Y-87500000D01*
X151580000Y-126920000D02*
X151580000Y-129620000D01*
X153500000Y-125000000D02*
X151580000Y-126920000D01*
X171500000Y-125000000D02*
X153500000Y-125000000D01*
X182000000Y-103580000D02*
X179080000Y-106500000D01*
X184000000Y-103580000D02*
X182000000Y-103580000D01*
X171500000Y-108500000D02*
X171500000Y-125000000D01*
X179080000Y-106500000D02*
X173500000Y-106500000D01*
X173500000Y-106500000D02*
X171500000Y-108500000D01*
X132160000Y-69920000D02*
X134240000Y-72000000D01*
X132160000Y-67500000D02*
X132160000Y-69920000D01*
X133240001Y-72999999D02*
X130000001Y-72999999D01*
X134240000Y-72000000D02*
X133240001Y-72999999D01*
X130000001Y-72999999D02*
X126500000Y-76500000D01*
X126500000Y-76500000D02*
X126500000Y-82500000D01*
X126500000Y-82500000D02*
X123500000Y-85500000D01*
X123500000Y-85500000D02*
X122500000Y-85500000D01*
X122500000Y-85500000D02*
X119500000Y-88500000D01*
X119500000Y-88500000D02*
X119500000Y-92500000D01*
X119500000Y-92500000D02*
X116500000Y-95500000D01*
X116500000Y-95500000D02*
X108000000Y-95500000D01*
X108000000Y-95500000D02*
X106500000Y-97000000D01*
X106500000Y-97000000D02*
X106500000Y-99000000D01*
X106500000Y-99000000D02*
X101500000Y-104000000D01*
X101500000Y-104000000D02*
X99500000Y-104000000D01*
X154120000Y-131720000D02*
X153500000Y-132340000D01*
X154120000Y-129620000D02*
X154120000Y-131720000D01*
X153500000Y-132340000D02*
X123840000Y-132340000D01*
X123840000Y-132340000D02*
X121000000Y-129500000D01*
X121000000Y-129500000D02*
X120000000Y-129500000D01*
X120000000Y-129500000D02*
X115500000Y-125000000D01*
X115500000Y-125000000D02*
X100500000Y-125000000D01*
X100500000Y-125000000D02*
X96500000Y-121000000D01*
X96500000Y-121000000D02*
X95000000Y-119500000D01*
X95000000Y-119500000D02*
X93000000Y-119500000D01*
X93000000Y-119500000D02*
X88500000Y-115000000D01*
X88500000Y-115000000D02*
X88500000Y-108500000D01*
X88500000Y-108500000D02*
X88500000Y-106500000D01*
X88500000Y-106500000D02*
X93500000Y-101500000D01*
X93500000Y-101500000D02*
X95000000Y-101500000D01*
X95000000Y-101500000D02*
X95000000Y-101500000D01*
X99500000Y-104000000D02*
X99500000Y-104000000D01*
X99000000Y-77500000D02*
X105000000Y-77500000D01*
X115000000Y-77500000D02*
X119000000Y-73500000D01*
X107540000Y-77500000D02*
X115000000Y-77500000D01*
X119000000Y-73500000D02*
X119000000Y-72000000D01*
X107540000Y-82460000D02*
X107540000Y-77500000D01*
X90500000Y-114000000D02*
X90500000Y-107500000D01*
X97000000Y-90000000D02*
X103500000Y-83500000D01*
X93500000Y-117000000D02*
X90500000Y-114000000D01*
X92500000Y-105500000D02*
X97000000Y-105500000D01*
X90500000Y-107500000D02*
X92500000Y-105500000D01*
X106500000Y-83500000D02*
X107540000Y-82460000D01*
X97000000Y-105500000D02*
X97000000Y-90000000D01*
X103500000Y-83500000D02*
X106500000Y-83500000D01*
X93500000Y-117000000D02*
X96500000Y-117000000D01*
X96500000Y-117000000D02*
X100000000Y-120500000D01*
X100500000Y-121500000D02*
X102500000Y-121500000D01*
X100000000Y-121000000D02*
X100500000Y-121500000D01*
X100000000Y-120500000D02*
X100000000Y-121000000D01*
X131260000Y-127520000D02*
X129000000Y-125260000D01*
X131260000Y-129620000D02*
X131260000Y-127520000D01*
X129000000Y-125260000D02*
X129000000Y-125260000D01*
X123500000Y-125500000D02*
X120500000Y-125500000D01*
X120500000Y-125500000D02*
X120000000Y-125000000D01*
X120000000Y-125000000D02*
X120000000Y-125000000D01*
X124500000Y-96500000D02*
X124500000Y-90500000D01*
X120000000Y-101000000D02*
X124500000Y-96500000D01*
X127040000Y-94460000D02*
X127040000Y-90500000D01*
X126500000Y-95000000D02*
X127040000Y-94460000D01*
X138960000Y-101500000D02*
X126500000Y-101500000D01*
X126500000Y-101500000D02*
X126500000Y-95000000D01*
X141500000Y-114300000D02*
X141420000Y-114380000D01*
X141500000Y-104040000D02*
X141500000Y-114300000D01*
M02*
