M48
; DRILL file {KiCad (5.1.5)-3} date 1.05.2020 16:43:30
; FORMAT={-:-/ absolute / metric / decimal}
; #@! TF.CreationDate,2020-05-01T16:43:30+03:00
; #@! TF.GenerationSoftware,Kicad,Pcbnew,(5.1.5)-3
; #@! TF.FileFunction,Plated,1,2,PTH
FMAT,2
METRIC
T1C0.800
T2C2.000
T3C3.000
%
G90
G05
T1
X93.5Y-130.0
X95.0Y-101.5
X99.5Y-104.0
X102.0Y-100.0
X105.25Y-103.25
X114.5Y-130.0
X120.0Y-101.0
X120.0Y-125.0
X123.5Y-111.0
X123.5Y-117.0
X123.5Y-120.0
X123.5Y-122.5
X123.5Y-125.5
X126.5Y-106.5
X129.0Y-99.0
X129.0Y-125.26
X131.5Y-99.0
X131.5Y-106.5
X134.0Y-99.0
X134.0Y-106.5
X135.0Y-122.5
X136.5Y-99.0
X136.5Y-106.5
X136.5Y-120.0
X137.5Y-81.5
X137.5Y-85.0
X137.5Y-88.5
X140.5Y-123.0
X142.5Y-83.0
X142.5Y-85.5
X142.5Y-88.5
X143.5Y-125.5
X149.75Y-91.25
X150.0Y-83.0
X151.5Y-95.0
X152.5Y-118.5
X154.64Y-117.0
X156.0Y-90.5
X156.0Y-95.0
X158.5Y-99.0
X159.5Y-110.5
X162.54Y-97.46
X167.96Y-97.46
X185.5Y-123.0
X188.0Y-125.5
X192.0Y-119.0
X195.0Y-102.0
X195.5Y-93.0
X195.5Y-97.5
X196.0Y-129.0
X198.5Y-77.0
X199.5Y-93.0
X199.5Y-97.5
X199.5Y-102.0
X201.5Y-119.5
X201.5Y-123.5
X201.5Y-129.0
X205.5Y-119.5
X205.5Y-123.5
X122.0Y-75.5
X132.16Y-75.5
X160.0Y-93.0
X162.54Y-93.0
X165.08Y-93.0
X102.5Y-121.5
X105.04Y-121.5
X128.72Y-114.38
X128.72Y-129.62
X131.26Y-114.38
X131.26Y-129.62
X133.8Y-114.38
X133.8Y-129.62
X136.34Y-114.38
X136.34Y-129.62
X138.88Y-114.38
X138.88Y-129.62
X141.42Y-114.38
X141.42Y-129.62
X143.96Y-114.38
X143.96Y-129.62
X146.5Y-114.38
X146.5Y-129.62
X149.04Y-114.38
X149.04Y-129.62
X151.58Y-114.38
X151.58Y-129.62
X154.12Y-114.38
X154.12Y-129.62
X156.66Y-114.38
X156.66Y-129.62
X159.2Y-114.38
X159.2Y-129.62
X161.74Y-114.38
X161.74Y-129.62
X164.28Y-114.38
X164.28Y-129.62
X160.0Y-85.0
X162.54Y-85.0
X165.08Y-85.0
X167.0Y-79.0
X169.54Y-79.0
X122.0Y-67.5
X132.16Y-67.5
X160.0Y-89.0
X162.54Y-89.0
X165.08Y-89.0
X110.5Y-98.5
X110.5Y-101.04
X110.5Y-103.58
X159.46Y-79.0
X162.0Y-79.0
X96.46Y-77.5
X99.0Y-77.5
X138.96Y-101.5
X138.96Y-104.04
X141.5Y-101.5
X141.5Y-104.04
X144.04Y-101.5
X144.04Y-104.04
X146.58Y-101.5
X146.58Y-104.04
X124.5Y-90.5
X127.04Y-90.5
X129.58Y-90.5
X99.5Y-112.5
X102.16Y-112.46
X104.7Y-112.46
X107.24Y-112.46
X109.78Y-112.46
X180.0Y-112.5
X182.66Y-112.46
X185.2Y-112.46
X187.74Y-112.46
X190.28Y-112.46
X184.0Y-98.5
X184.0Y-101.04
X184.0Y-103.58
X105.0Y-77.5
X107.54Y-77.5
X119.0Y-72.0
X134.24Y-72.0
X122.0Y-79.0
X132.16Y-79.0
X122.0Y-82.0
X132.16Y-82.0
X110.0Y-121.5
X112.54Y-121.5
T2
X86.0Y-129.0
X106.0Y-69.0
X186.0Y-69.0
X206.0Y-129.0
T3
X95.0Y-84.5
X95.0Y-110.5
X115.0Y-84.5
X115.0Y-110.5
X175.5Y-84.5
X175.5Y-110.5
X195.5Y-84.5
X195.5Y-110.5
T0
M30
