G04 #@! TF.GenerationSoftware,KiCad,Pcbnew,(5.1.5)-3*
G04 #@! TF.CreationDate,2020-04-05T21:04:07+03:00*
G04 #@! TF.ProjectId,5V_DV,35565f44-562e-46b6-9963-61645f706362,V2.0*
G04 #@! TF.SameCoordinates,Original*
G04 #@! TF.FileFunction,Legend,Top*
G04 #@! TF.FilePolarity,Positive*
%FSLAX46Y46*%
G04 Gerber Fmt 4.6, Leading zero omitted, Abs format (unit mm)*
G04 Created by KiCad (PCBNEW (5.1.5)-3) date 2020-04-05 21:04:07*
%MOMM*%
%LPD*%
G04 APERTURE LIST*
%ADD10C,0.120000*%
%ADD11C,0.150000*%
G04 APERTURE END LIST*
D10*
X138310000Y-88810000D02*
X138310000Y-91440000D01*
X138310000Y-97190000D02*
X138310000Y-94560000D01*
X146690000Y-96430000D02*
X146690000Y-94560000D01*
X146690000Y-89570000D02*
X146690000Y-91440000D01*
X138310000Y-88810000D02*
X145930000Y-88810000D01*
X145930000Y-88810000D02*
X146690000Y-89570000D01*
X146690000Y-96430000D02*
X145930000Y-97190000D01*
X145930000Y-97190000D02*
X138310000Y-97190000D01*
X148050000Y-86570000D02*
X148050000Y-88070000D01*
X148050000Y-88070000D02*
X148320000Y-88070000D01*
X148320000Y-88070000D02*
X148320000Y-90900000D01*
X154950000Y-86570000D02*
X154950000Y-88070000D01*
X154950000Y-88070000D02*
X154680000Y-88070000D01*
X154680000Y-88070000D02*
X154680000Y-89170000D01*
X162870000Y-96270000D02*
X162870000Y-96330000D01*
X162870000Y-96330000D02*
X157670000Y-96330000D01*
X157670000Y-96330000D02*
X157670000Y-93670000D01*
X157670000Y-93670000D02*
X160270000Y-93670000D01*
X160270000Y-93670000D02*
X160270000Y-96270000D01*
X160270000Y-96270000D02*
X162870000Y-96270000D01*
X162870000Y-95000000D02*
X162870000Y-93670000D01*
X162870000Y-93670000D02*
X161600000Y-93670000D01*
X150170000Y-93730000D02*
X150170000Y-93670000D01*
X150170000Y-93670000D02*
X155370000Y-93670000D01*
X155370000Y-93670000D02*
X155370000Y-96330000D01*
X155370000Y-96330000D02*
X152770000Y-96330000D01*
X152770000Y-96330000D02*
X152770000Y-93730000D01*
X152770000Y-93730000D02*
X150170000Y-93730000D01*
X150170000Y-95000000D02*
X150170000Y-96330000D01*
X150170000Y-96330000D02*
X151440000Y-96330000D01*
X146460000Y-87450000D02*
X146460000Y-83550000D01*
X146460000Y-83550000D02*
X140850000Y-83550000D01*
X146460000Y-87450000D02*
X140850000Y-87450000D01*
X163690000Y-81310000D02*
X161060000Y-81310000D01*
X155310000Y-81310000D02*
X157940000Y-81310000D01*
X156070000Y-89690000D02*
X157940000Y-89690000D01*
X162930000Y-89690000D02*
X161060000Y-89690000D01*
X163690000Y-81310000D02*
X163690000Y-88930000D01*
X163690000Y-88930000D02*
X162930000Y-89690000D01*
X156070000Y-89690000D02*
X155310000Y-88930000D01*
X155310000Y-88930000D02*
X155310000Y-81310000D01*
D11*
X142333333Y-87907142D02*
X142285714Y-87954761D01*
X142142857Y-88002380D01*
X142047619Y-88002380D01*
X141904761Y-87954761D01*
X141809523Y-87859523D01*
X141761904Y-87764285D01*
X141714285Y-87573809D01*
X141714285Y-87430952D01*
X141761904Y-87240476D01*
X141809523Y-87145238D01*
X141904761Y-87050000D01*
X142047619Y-87002380D01*
X142142857Y-87002380D01*
X142285714Y-87050000D01*
X142333333Y-87097619D01*
X143285714Y-88002380D02*
X142714285Y-88002380D01*
X143000000Y-88002380D02*
X143000000Y-87002380D01*
X142904761Y-87145238D01*
X142809523Y-87240476D01*
X142714285Y-87288095D01*
X146899047Y-89161428D02*
X147660952Y-89161428D01*
X147280000Y-89542380D02*
X147280000Y-88780476D01*
X146452380Y-86361904D02*
X147261904Y-86361904D01*
X147357142Y-86314285D01*
X147404761Y-86266666D01*
X147452380Y-86171428D01*
X147452380Y-85980952D01*
X147404761Y-85885714D01*
X147357142Y-85838095D01*
X147261904Y-85790476D01*
X146452380Y-85790476D01*
X147452380Y-84790476D02*
X147452380Y-85361904D01*
X147452380Y-85076190D02*
X146452380Y-85076190D01*
X146595238Y-85171428D01*
X146690476Y-85266666D01*
X146738095Y-85361904D01*
X159936666Y-92122380D02*
X159936666Y-92836666D01*
X159889047Y-92979523D01*
X159793809Y-93074761D01*
X159650952Y-93122380D01*
X159555714Y-93122380D01*
X160365238Y-92217619D02*
X160412857Y-92170000D01*
X160508095Y-92122380D01*
X160746190Y-92122380D01*
X160841428Y-92170000D01*
X160889047Y-92217619D01*
X160936666Y-92312857D01*
X160936666Y-92408095D01*
X160889047Y-92550952D01*
X160317619Y-93122380D01*
X160936666Y-93122380D01*
X152436666Y-96782380D02*
X152436666Y-97496666D01*
X152389047Y-97639523D01*
X152293809Y-97734761D01*
X152150952Y-97782380D01*
X152055714Y-97782380D01*
X153436666Y-97782380D02*
X152865238Y-97782380D01*
X153150952Y-97782380D02*
X153150952Y-96782380D01*
X153055714Y-96925238D01*
X152960476Y-97020476D01*
X152865238Y-97068095D01*
X142261904Y-88652380D02*
X142261904Y-87652380D01*
X142500000Y-87652380D01*
X142642857Y-87700000D01*
X142738095Y-87795238D01*
X142785714Y-87890476D01*
X142833333Y-88080952D01*
X142833333Y-88223809D01*
X142785714Y-88414285D01*
X142738095Y-88509523D01*
X142642857Y-88604761D01*
X142500000Y-88652380D01*
X142261904Y-88652380D01*
X143785714Y-88652380D02*
X143214285Y-88652380D01*
X143500000Y-88652380D02*
X143500000Y-87652380D01*
X143404761Y-87795238D01*
X143309523Y-87890476D01*
X143214285Y-87938095D01*
X165307142Y-85666666D02*
X165354761Y-85714285D01*
X165402380Y-85857142D01*
X165402380Y-85952380D01*
X165354761Y-86095238D01*
X165259523Y-86190476D01*
X165164285Y-86238095D01*
X164973809Y-86285714D01*
X164830952Y-86285714D01*
X164640476Y-86238095D01*
X164545238Y-86190476D01*
X164450000Y-86095238D01*
X164402380Y-85952380D01*
X164402380Y-85857142D01*
X164450000Y-85714285D01*
X164497619Y-85666666D01*
X164497619Y-85285714D02*
X164450000Y-85238095D01*
X164402380Y-85142857D01*
X164402380Y-84904761D01*
X164450000Y-84809523D01*
X164497619Y-84761904D01*
X164592857Y-84714285D01*
X164688095Y-84714285D01*
X164830952Y-84761904D01*
X165402380Y-85333333D01*
X165402380Y-84714285D01*
X163481428Y-90660952D02*
X163481428Y-89899047D01*
X163862380Y-90280000D02*
X163100476Y-90280000D01*
M02*
