G04 #@! TF.GenerationSoftware,KiCad,Pcbnew,(5.1.5)-3*
G04 #@! TF.CreationDate,2020-04-05T22:27:04+03:00*
G04 #@! TF.ProjectId,3.3V_Besleme,332e3356-5f42-4657-936c-656d652e6b69,rev?*
G04 #@! TF.SameCoordinates,Original*
G04 #@! TF.FileFunction,Legend,Top*
G04 #@! TF.FilePolarity,Positive*
%FSLAX46Y46*%
G04 Gerber Fmt 4.6, Leading zero omitted, Abs format (unit mm)*
G04 Created by KiCad (PCBNEW (5.1.5)-3) date 2020-04-05 22:27:04*
%MOMM*%
%LPD*%
G04 APERTURE LIST*
%ADD10C,0.120000*%
%ADD11C,0.150000*%
G04 APERTURE END LIST*
D10*
X148050000Y-84970000D02*
X148050000Y-86470000D01*
X148050000Y-86470000D02*
X148320000Y-86470000D01*
X148320000Y-86470000D02*
X148320000Y-89300000D01*
X154950000Y-84970000D02*
X154950000Y-86470000D01*
X154950000Y-86470000D02*
X154680000Y-86470000D01*
X154680000Y-86470000D02*
X154680000Y-87570000D01*
X160270000Y-93830000D02*
X162870000Y-93830000D01*
X162870000Y-93830000D02*
X162870000Y-91170000D01*
X162870000Y-91170000D02*
X160270000Y-91170000D01*
X160270000Y-91170000D02*
X160270000Y-93830000D01*
X159000000Y-93830000D02*
X157670000Y-93830000D01*
X157670000Y-93830000D02*
X157670000Y-92500000D01*
X152770000Y-93830000D02*
X155370000Y-93830000D01*
X155370000Y-93830000D02*
X155370000Y-91170000D01*
X155370000Y-91170000D02*
X152770000Y-91170000D01*
X152770000Y-91170000D02*
X152770000Y-93830000D01*
X151500000Y-93830000D02*
X150170000Y-93830000D01*
X150170000Y-93830000D02*
X150170000Y-92500000D01*
X145460000Y-93450000D02*
X145460000Y-89550000D01*
X145460000Y-89550000D02*
X139850000Y-89550000D01*
X145460000Y-93450000D02*
X139850000Y-93450000D01*
X163430000Y-79810000D02*
X161560000Y-79810000D01*
X156570000Y-79810000D02*
X158440000Y-79810000D01*
X155810000Y-88190000D02*
X158440000Y-88190000D01*
X164190000Y-88190000D02*
X161560000Y-88190000D01*
X155810000Y-88190000D02*
X155810000Y-80570000D01*
X155810000Y-80570000D02*
X156570000Y-79810000D01*
X163430000Y-79810000D02*
X164190000Y-80570000D01*
X164190000Y-80570000D02*
X164190000Y-88190000D01*
X138570000Y-87690000D02*
X140440000Y-87690000D01*
X145430000Y-87690000D02*
X143560000Y-87690000D01*
X146190000Y-79310000D02*
X143560000Y-79310000D01*
X137810000Y-79310000D02*
X140440000Y-79310000D01*
X146190000Y-79310000D02*
X146190000Y-86930000D01*
X146190000Y-86930000D02*
X145430000Y-87690000D01*
X138570000Y-87690000D02*
X137810000Y-86930000D01*
X137810000Y-86930000D02*
X137810000Y-79310000D01*
D11*
X146452380Y-84761904D02*
X147261904Y-84761904D01*
X147357142Y-84714285D01*
X147404761Y-84666666D01*
X147452380Y-84571428D01*
X147452380Y-84380952D01*
X147404761Y-84285714D01*
X147357142Y-84238095D01*
X147261904Y-84190476D01*
X146452380Y-84190476D01*
X147452380Y-83190476D02*
X147452380Y-83761904D01*
X147452380Y-83476190D02*
X146452380Y-83476190D01*
X146595238Y-83571428D01*
X146690476Y-83666666D01*
X146738095Y-83761904D01*
X156122380Y-92833333D02*
X156836666Y-92833333D01*
X156979523Y-92880952D01*
X157074761Y-92976190D01*
X157122380Y-93119047D01*
X157122380Y-93214285D01*
X156217619Y-92404761D02*
X156170000Y-92357142D01*
X156122380Y-92261904D01*
X156122380Y-92023809D01*
X156170000Y-91928571D01*
X156217619Y-91880952D01*
X156312857Y-91833333D01*
X156408095Y-91833333D01*
X156550952Y-91880952D01*
X157122380Y-92452380D01*
X157122380Y-91833333D01*
X148622380Y-92833333D02*
X149336666Y-92833333D01*
X149479523Y-92880952D01*
X149574761Y-92976190D01*
X149622380Y-93119047D01*
X149622380Y-93214285D01*
X149622380Y-91833333D02*
X149622380Y-92404761D01*
X149622380Y-92119047D02*
X148622380Y-92119047D01*
X148765238Y-92214285D01*
X148860476Y-92309523D01*
X148908095Y-92404761D01*
X141261904Y-94652380D02*
X141261904Y-93652380D01*
X141500000Y-93652380D01*
X141642857Y-93700000D01*
X141738095Y-93795238D01*
X141785714Y-93890476D01*
X141833333Y-94080952D01*
X141833333Y-94223809D01*
X141785714Y-94414285D01*
X141738095Y-94509523D01*
X141642857Y-94604761D01*
X141500000Y-94652380D01*
X141261904Y-94652380D01*
X142785714Y-94652380D02*
X142214285Y-94652380D01*
X142500000Y-94652380D02*
X142500000Y-93652380D01*
X142404761Y-93795238D01*
X142309523Y-93890476D01*
X142214285Y-93938095D01*
X154907142Y-84166666D02*
X154954761Y-84214285D01*
X155002380Y-84357142D01*
X155002380Y-84452380D01*
X154954761Y-84595238D01*
X154859523Y-84690476D01*
X154764285Y-84738095D01*
X154573809Y-84785714D01*
X154430952Y-84785714D01*
X154240476Y-84738095D01*
X154145238Y-84690476D01*
X154050000Y-84595238D01*
X154002380Y-84452380D01*
X154002380Y-84357142D01*
X154050000Y-84214285D01*
X154097619Y-84166666D01*
X154097619Y-83785714D02*
X154050000Y-83738095D01*
X154002380Y-83642857D01*
X154002380Y-83404761D01*
X154050000Y-83309523D01*
X154097619Y-83261904D01*
X154192857Y-83214285D01*
X154288095Y-83214285D01*
X154430952Y-83261904D01*
X155002380Y-83833333D01*
X155002380Y-83214285D01*
X156161428Y-79590952D02*
X156161428Y-78829047D01*
X156542380Y-79210000D02*
X155780476Y-79210000D01*
X147807142Y-83666666D02*
X147854761Y-83714285D01*
X147902380Y-83857142D01*
X147902380Y-83952380D01*
X147854761Y-84095238D01*
X147759523Y-84190476D01*
X147664285Y-84238095D01*
X147473809Y-84285714D01*
X147330952Y-84285714D01*
X147140476Y-84238095D01*
X147045238Y-84190476D01*
X146950000Y-84095238D01*
X146902380Y-83952380D01*
X146902380Y-83857142D01*
X146950000Y-83714285D01*
X146997619Y-83666666D01*
X147902380Y-82714285D02*
X147902380Y-83285714D01*
X147902380Y-83000000D02*
X146902380Y-83000000D01*
X147045238Y-83095238D01*
X147140476Y-83190476D01*
X147188095Y-83285714D01*
X145981428Y-88670952D02*
X145981428Y-87909047D01*
X146362380Y-88290000D02*
X145600476Y-88290000D01*
M02*
