M48
; DRILL file {KiCad (5.1.5)-3} date 14.04.2020 01:24:33
; FORMAT={-:-/ absolute / metric / decimal}
; #@! TF.CreationDate,2020-04-14T01:24:33+03:00
; #@! TF.GenerationSoftware,Kicad,Pcbnew,(5.1.5)-3
; #@! TF.FileFunction,Plated,1,2,PTH
FMAT,2
METRIC
T1C0.800
T2C2.000
T3C3.000
%
G90
G05
T1
X118.5Y-110.5
X119.5Y-94.0
X119.5Y-102.0
X121.5Y-118.0
X122.0Y-97.0
X122.0Y-100.5
X122.0Y-114.5
X122.0Y-120.5
X126.5Y-120.5
X127.0Y-111.5
X127.5Y-115.0
X128.0Y-118.0
X131.5Y-104.5
X133.5Y-101.0
X135.0Y-98.0
X136.3Y-85.8
X136.5Y-105.0
X136.75Y-78.25
X137.0Y-82.0
X138.0Y-119.5
X141.75Y-78.25
X143.5Y-119.0
X144.0Y-82.0
X144.0Y-86.5
X146.0Y-116.0
X146.75Y-113.5
X147.5Y-110.5
X149.0Y-85.5
X152.0Y-112.0
X152.0Y-121.0
X154.0Y-88.5
X155.25Y-110.75
X155.5Y-98.0
X156.5Y-94.5
X159.0Y-72.0
X159.0Y-75.0
X161.0Y-96.5
X161.04Y-92.96
X162.5Y-72.0
X162.5Y-75.0
X165.5Y-114.0
X166.0Y-72.0
X166.0Y-75.0
X166.0Y-100.0
X166.96Y-92.96
X168.5Y-75.0
X173.5Y-113.0
X173.5Y-119.0
X174.0Y-116.0
X177.0Y-113.0
X177.0Y-116.0
X177.0Y-119.0
X177.5Y-73.0
X178.25Y-85.25
X178.25Y-91.25
X179.0Y-105.5
X184.5Y-116.5
X186.0Y-102.0
X186.0Y-119.5
X188.0Y-105.0
X190.0Y-113.0
X191.5Y-101.5
X137.96Y-98.0
X137.96Y-100.54
X140.5Y-98.0
X140.5Y-100.54
X143.04Y-98.0
X143.04Y-100.54
X145.58Y-98.0
X145.58Y-100.54
X179.0Y-109.0
X181.66Y-108.96
X184.2Y-108.96
X186.74Y-108.96
X189.28Y-108.96
X158.5Y-82.0
X161.04Y-82.0
X163.58Y-82.0
X194.5Y-98.5
X194.5Y-101.04
X109.5Y-95.0
X109.5Y-97.54
X109.5Y-100.08
X194.5Y-90.96
X194.5Y-93.5
X121.5Y-85.0
X131.66Y-85.0
X158.5Y-90.0
X161.04Y-90.0
X163.58Y-90.0
X118.5Y-74.5
X133.74Y-74.5
X101.5Y-118.0
X104.04Y-118.0
X102.5Y-87.0
X105.04Y-87.0
X121.5Y-82.0
X131.66Y-82.0
X98.5Y-109.0
X101.16Y-108.96
X103.7Y-108.96
X106.24Y-108.96
X108.78Y-108.96
X121.5Y-78.5
X131.66Y-78.5
X126.72Y-107.88
X126.72Y-123.12
X129.26Y-107.88
X129.26Y-123.12
X131.8Y-107.88
X131.8Y-123.12
X134.34Y-107.88
X134.34Y-123.12
X136.88Y-107.88
X136.88Y-123.12
X139.42Y-107.88
X139.42Y-123.12
X141.96Y-107.88
X141.96Y-123.12
X144.5Y-107.88
X144.5Y-123.12
X147.04Y-107.88
X147.04Y-123.12
X149.58Y-107.88
X149.58Y-123.12
X152.12Y-107.88
X152.12Y-123.12
X154.66Y-107.88
X154.66Y-123.12
X157.2Y-107.88
X157.2Y-123.12
X159.74Y-107.88
X159.74Y-123.12
X162.28Y-107.88
X162.28Y-123.12
X101.0Y-93.5
X101.0Y-96.04
X158.5Y-86.0
X161.04Y-86.0
X163.58Y-86.0
X109.0Y-118.0
X111.54Y-118.0
X183.0Y-95.0
X183.0Y-97.54
X183.0Y-100.08
X121.5Y-69.5
X131.66Y-69.5
T2
X86.0Y-120.5
X105.0Y-65.5
X185.0Y-65.5
X205.0Y-120.5
T3
X174.5Y-81.0
X174.5Y-107.0
X194.5Y-81.0
X194.5Y-107.0
X94.0Y-81.0
X94.0Y-107.0
X114.0Y-81.0
X114.0Y-107.0
T0
M30
