G04 #@! TF.GenerationSoftware,KiCad,Pcbnew,(5.1.5)-3*
G04 #@! TF.CreationDate,2020-04-14T01:24:30+03:00*
G04 #@! TF.ProjectId,Transmitter,5472616e-736d-4697-9474-65722e6b6963,rev?*
G04 #@! TF.SameCoordinates,Original*
G04 #@! TF.FileFunction,Copper,L1,Top*
G04 #@! TF.FilePolarity,Positive*
%FSLAX46Y46*%
G04 Gerber Fmt 4.6, Leading zero omitted, Abs format (unit mm)*
G04 Created by KiCad (PCBNEW (5.1.5)-3) date 2020-04-14 01:24:30*
%MOMM*%
%LPD*%
G04 APERTURE LIST*
%ADD10C,2.000000*%
%ADD11O,2.000000X2.000000*%
%ADD12O,1.700000X2.000000*%
%ADD13R,2.000000X2.000000*%
%ADD14O,1.600000X2.000000*%
%ADD15O,2.000000X3.000000*%
%ADD16R,2.000000X3.000000*%
%ADD17C,5.000000*%
%ADD18O,2.000000X1.700000*%
%ADD19O,1.700000X2.200000*%
%ADD20C,4.000000*%
%ADD21C,1.000000*%
G04 APERTURE END LIST*
D10*
X121500000Y-85000000D03*
D11*
X131660000Y-85000000D03*
D10*
X121500000Y-82000000D03*
D11*
X131660000Y-82000000D03*
D10*
X121500000Y-78500000D03*
D11*
X131660000Y-78500000D03*
D12*
X145580000Y-98000000D03*
X145580000Y-100540000D03*
X143040000Y-98000000D03*
X143040000Y-100540000D03*
X140500000Y-98000000D03*
X140500000Y-100540000D03*
X137960000Y-98000000D03*
D13*
X137960000Y-100540000D03*
D10*
X118500000Y-74500000D03*
D11*
X133740000Y-74500000D03*
D10*
X121500000Y-69500000D03*
D14*
X131660000Y-69500000D03*
D15*
X189280000Y-108960000D03*
X186740000Y-108960000D03*
X184200000Y-108960000D03*
X181660000Y-108960000D03*
D16*
X179000000Y-109000000D03*
D17*
X174500000Y-81000000D03*
X194500000Y-81000000D03*
X194500000Y-107000000D03*
X174500000Y-107000000D03*
D15*
X108780000Y-108960000D03*
X106240000Y-108960000D03*
X103700000Y-108960000D03*
X101160000Y-108960000D03*
D16*
X98500000Y-109000000D03*
D17*
X94000000Y-81000000D03*
X114000000Y-81000000D03*
X114000000Y-107000000D03*
X94000000Y-107000000D03*
D13*
X109500000Y-95000000D03*
D18*
X109500000Y-97540000D03*
X109500000Y-100080000D03*
D13*
X183000000Y-95000000D03*
D18*
X183000000Y-97540000D03*
X183000000Y-100080000D03*
D13*
X194500000Y-101040000D03*
D18*
X194500000Y-98500000D03*
D13*
X101500000Y-118000000D03*
D12*
X104040000Y-118000000D03*
D13*
X194500000Y-93500000D03*
D18*
X194500000Y-90960000D03*
D13*
X111540000Y-118000000D03*
D12*
X109000000Y-118000000D03*
D13*
X101000000Y-93500000D03*
D18*
X101000000Y-96040000D03*
D13*
X158500000Y-90000000D03*
D12*
X161040000Y-90000000D03*
X163580000Y-90000000D03*
D13*
X158500000Y-86000000D03*
D12*
X161040000Y-86000000D03*
X163580000Y-86000000D03*
D13*
X158500000Y-82000000D03*
D12*
X161040000Y-82000000D03*
X163580000Y-82000000D03*
D13*
X102500000Y-87000000D03*
D12*
X105040000Y-87000000D03*
D19*
X126720000Y-107880000D03*
X126720000Y-123120000D03*
X129260000Y-107880000D03*
X129260000Y-123120000D03*
X131800000Y-107880000D03*
X131800000Y-123120000D03*
X134340000Y-107880000D03*
X134340000Y-123120000D03*
X136880000Y-107880000D03*
X136880000Y-123120000D03*
X139420000Y-107880000D03*
X139420000Y-123120000D03*
X141960000Y-107880000D03*
X141960000Y-123120000D03*
X144500000Y-107880000D03*
X144500000Y-123120000D03*
X147040000Y-107880000D03*
X147040000Y-123120000D03*
X149580000Y-107880000D03*
X149580000Y-123120000D03*
X152120000Y-107880000D03*
X152120000Y-123120000D03*
X154660000Y-107880000D03*
X154660000Y-123120000D03*
X157200000Y-107880000D03*
X157200000Y-123120000D03*
X159740000Y-107880000D03*
X159740000Y-123120000D03*
D13*
X162280000Y-107880000D03*
D19*
X162280000Y-123120000D03*
D20*
X86000000Y-120500000D03*
X205000000Y-120500000D03*
X185000000Y-65500000D03*
X105000000Y-65500000D03*
D10*
X126500000Y-120500000D03*
X122000000Y-120500000D03*
X131500000Y-104500000D03*
X136500000Y-105000000D03*
X121500000Y-118000000D03*
X128000000Y-118000000D03*
X184500000Y-116500000D03*
X177000000Y-116000000D03*
X174000000Y-116000000D03*
X146000000Y-116000000D03*
X136299999Y-85799999D03*
X144000000Y-86500000D03*
X154000000Y-88500000D03*
X149000000Y-85500000D03*
X186000000Y-119500000D03*
X177000000Y-119000000D03*
X173500000Y-119000000D03*
X143500000Y-119000000D03*
X161000000Y-96500000D03*
X156500000Y-94500000D03*
X137000000Y-82000000D03*
X144000000Y-82000000D03*
X155500000Y-98000000D03*
X166000000Y-100000000D03*
X155250000Y-110750000D03*
X147500000Y-110500000D03*
X141750000Y-78250000D03*
X136750000Y-78250000D03*
X190000000Y-113000000D03*
X177000000Y-113000000D03*
X173500000Y-113000000D03*
X165500000Y-114000000D03*
X118500000Y-110500000D03*
X152000000Y-112000000D03*
X146750000Y-113500000D03*
X127000000Y-111500000D03*
X133500000Y-101000000D03*
X122000000Y-100500000D03*
X179000000Y-105500000D03*
X188000000Y-105000000D03*
X159000000Y-72000000D03*
X162500000Y-72000000D03*
X166000000Y-72000000D03*
X161040000Y-92960000D03*
X166960000Y-92960000D03*
X178250000Y-85250000D03*
X178250000Y-91250000D03*
X186000000Y-102000000D03*
X191500000Y-101500000D03*
X135000000Y-98000000D03*
X122000000Y-97000000D03*
X177500000Y-73000000D03*
X168500000Y-75000000D03*
X159000000Y-75000000D03*
X162500000Y-75000000D03*
X166000000Y-75000000D03*
X119500000Y-94000000D03*
X119500000Y-102000000D03*
X122000000Y-114500000D03*
X127500000Y-115000000D03*
X138000000Y-119500000D03*
X152000000Y-121000000D03*
D21*
X126500000Y-120500000D02*
X122000000Y-120500000D01*
X122000000Y-120500000D02*
X122000000Y-120500000D01*
X136500000Y-105000000D02*
X136500000Y-105000000D01*
X132000000Y-105000000D02*
X131500000Y-104500000D01*
X136500000Y-105000000D02*
X132000000Y-105000000D01*
X121500000Y-118000000D02*
X128000000Y-118000000D01*
X128000000Y-118000000D02*
X128000000Y-118000000D01*
X184500000Y-116500000D02*
X177500000Y-116500000D01*
X177500000Y-116500000D02*
X177000000Y-116000000D01*
X177000000Y-116000000D02*
X177000000Y-116000000D01*
X174000000Y-116000000D02*
X146000000Y-116000000D01*
X146000000Y-116000000D02*
X146000000Y-116000000D01*
X136299999Y-85799999D02*
X143299999Y-85799999D01*
X143299999Y-85799999D02*
X144000000Y-86500000D01*
X144000000Y-86500000D02*
X144000000Y-86500000D01*
X151000000Y-85500000D02*
X154000000Y-88500000D01*
X149000000Y-85500000D02*
X151000000Y-85500000D01*
X184585787Y-119500000D02*
X184085787Y-119000000D01*
X186000000Y-119500000D02*
X184585787Y-119500000D01*
X184085787Y-119000000D02*
X177500000Y-119000000D01*
X177500000Y-119000000D02*
X177000000Y-119000000D01*
X177000000Y-119000000D02*
X177000000Y-119000000D01*
X173500000Y-119000000D02*
X143500000Y-119000000D01*
X161000000Y-96500000D02*
X160000000Y-95500000D01*
X157499999Y-95499999D02*
X156500000Y-94500000D01*
X160000000Y-95500000D02*
X157499999Y-95499999D01*
X137000000Y-82000000D02*
X144000000Y-82000000D01*
X144000000Y-82000000D02*
X144000000Y-82000000D01*
X156499999Y-98999999D02*
X164999999Y-98999999D01*
X155500000Y-98000000D02*
X156499999Y-98999999D01*
X164999999Y-98999999D02*
X166000000Y-100000000D01*
X166000000Y-100000000D02*
X166000000Y-100000000D01*
X155250000Y-110750000D02*
X154250000Y-110750000D01*
X154250000Y-110750000D02*
X153500000Y-110000000D01*
X153500000Y-110000000D02*
X148000000Y-110000000D01*
X148000000Y-110000000D02*
X147500000Y-110500000D01*
X147500000Y-110500000D02*
X147500000Y-110500000D01*
X141750000Y-78250000D02*
X136750000Y-78250000D01*
X136750000Y-78250000D02*
X136750000Y-78250000D01*
X190000000Y-113000000D02*
X177000000Y-113000000D01*
X177000000Y-113000000D02*
X177000000Y-113000000D01*
X173500000Y-113000000D02*
X166500000Y-113000000D01*
X166500000Y-113000000D02*
X165500000Y-114000000D01*
X165500000Y-114000000D02*
X165500000Y-114000000D01*
X146750000Y-113500000D02*
X147500000Y-113500000D01*
X147500000Y-113500000D02*
X148000000Y-114000000D01*
X127000000Y-111500000D02*
X127000000Y-111500000D01*
X151414213Y-114000000D02*
X148000000Y-114000000D01*
X152000000Y-113414213D02*
X151414213Y-114000000D01*
X152000000Y-112000000D02*
X152000000Y-113414213D01*
X121500000Y-110500000D02*
X118500000Y-110500000D01*
X127000000Y-111500000D02*
X126000000Y-110500000D01*
X126000000Y-110500000D02*
X121500000Y-110500000D01*
X133500000Y-101000000D02*
X122500000Y-101000000D01*
X122500000Y-101000000D02*
X122000000Y-100500000D01*
X122000000Y-100500000D02*
X122000000Y-100500000D01*
X179000000Y-105500000D02*
X187500000Y-105500000D01*
X187500000Y-105500000D02*
X188000000Y-105000000D01*
X188000000Y-105000000D02*
X188000000Y-105000000D01*
X161040000Y-92960000D02*
X166960000Y-92960000D01*
X166960000Y-92960000D02*
X166960000Y-92960000D01*
X178250000Y-91250000D02*
X178250000Y-91250000D01*
X178250000Y-85250000D02*
X178250000Y-91250000D01*
X186000000Y-102000000D02*
X191000000Y-102000000D01*
X191000000Y-102000000D02*
X191500000Y-101500000D01*
X191500000Y-101500000D02*
X191500000Y-101500000D01*
X133585787Y-98000000D02*
X132585787Y-97000000D01*
X135000000Y-98000000D02*
X133585787Y-98000000D01*
X132585787Y-97000000D02*
X122000000Y-97000000D01*
X122000000Y-97000000D02*
X122000000Y-97000000D01*
X177500000Y-73000000D02*
X170500000Y-73000000D01*
X170500000Y-73000000D02*
X168500000Y-75000000D01*
X168500000Y-75000000D02*
X168500000Y-75000000D01*
X119500000Y-94000000D02*
X119500000Y-95414213D01*
X119500000Y-95414213D02*
X119500000Y-102000000D01*
X119500000Y-102000000D02*
X119500000Y-102000000D01*
X122000000Y-114500000D02*
X127000000Y-114500000D01*
X127000000Y-114500000D02*
X127500000Y-115000000D01*
X127500000Y-115000000D02*
X127500000Y-115000000D01*
X139414213Y-119500000D02*
X140914213Y-121000000D01*
X138000000Y-119500000D02*
X139414213Y-119500000D01*
X140914213Y-121000000D02*
X152000000Y-121000000D01*
X152000000Y-121000000D02*
X152000000Y-121000000D01*
M02*
