G04 #@! TF.GenerationSoftware,KiCad,Pcbnew,(5.1.5)-3*
G04 #@! TF.CreationDate,2020-04-14T01:24:30+03:00*
G04 #@! TF.ProjectId,Transmitter,5472616e-736d-4697-9474-65722e6b6963,rev?*
G04 #@! TF.SameCoordinates,Original*
G04 #@! TF.FileFunction,Copper,L2,Bot*
G04 #@! TF.FilePolarity,Positive*
%FSLAX46Y46*%
G04 Gerber Fmt 4.6, Leading zero omitted, Abs format (unit mm)*
G04 Created by KiCad (PCBNEW (5.1.5)-3) date 2020-04-14 01:24:30*
%MOMM*%
%LPD*%
G04 APERTURE LIST*
%ADD10C,2.000000*%
%ADD11O,2.000000X2.000000*%
%ADD12O,1.700000X2.000000*%
%ADD13R,2.000000X2.000000*%
%ADD14O,1.600000X2.000000*%
%ADD15O,2.000000X3.000000*%
%ADD16R,2.000000X3.000000*%
%ADD17C,5.000000*%
%ADD18O,2.000000X1.700000*%
%ADD19O,1.700000X2.200000*%
%ADD20C,4.000000*%
%ADD21C,1.000000*%
G04 APERTURE END LIST*
D10*
X121500000Y-85000000D03*
D11*
X131660000Y-85000000D03*
D10*
X121500000Y-82000000D03*
D11*
X131660000Y-82000000D03*
D10*
X121500000Y-78500000D03*
D11*
X131660000Y-78500000D03*
D12*
X145580000Y-98000000D03*
X145580000Y-100540000D03*
X143040000Y-98000000D03*
X143040000Y-100540000D03*
X140500000Y-98000000D03*
X140500000Y-100540000D03*
X137960000Y-98000000D03*
D13*
X137960000Y-100540000D03*
D10*
X118500000Y-74500000D03*
D11*
X133740000Y-74500000D03*
D10*
X121500000Y-69500000D03*
D14*
X131660000Y-69500000D03*
D15*
X189280000Y-108960000D03*
X186740000Y-108960000D03*
X184200000Y-108960000D03*
X181660000Y-108960000D03*
D16*
X179000000Y-109000000D03*
D17*
X174500000Y-81000000D03*
X194500000Y-81000000D03*
X194500000Y-107000000D03*
X174500000Y-107000000D03*
D15*
X108780000Y-108960000D03*
X106240000Y-108960000D03*
X103700000Y-108960000D03*
X101160000Y-108960000D03*
D16*
X98500000Y-109000000D03*
D17*
X94000000Y-81000000D03*
X114000000Y-81000000D03*
X114000000Y-107000000D03*
X94000000Y-107000000D03*
D13*
X109500000Y-95000000D03*
D18*
X109500000Y-97540000D03*
X109500000Y-100080000D03*
D13*
X183000000Y-95000000D03*
D18*
X183000000Y-97540000D03*
X183000000Y-100080000D03*
D13*
X194500000Y-101040000D03*
D18*
X194500000Y-98500000D03*
D13*
X101500000Y-118000000D03*
D12*
X104040000Y-118000000D03*
D13*
X194500000Y-93500000D03*
D18*
X194500000Y-90960000D03*
D13*
X111540000Y-118000000D03*
D12*
X109000000Y-118000000D03*
D13*
X101000000Y-93500000D03*
D18*
X101000000Y-96040000D03*
D13*
X158500000Y-90000000D03*
D12*
X161040000Y-90000000D03*
X163580000Y-90000000D03*
D13*
X158500000Y-86000000D03*
D12*
X161040000Y-86000000D03*
X163580000Y-86000000D03*
D13*
X158500000Y-82000000D03*
D12*
X161040000Y-82000000D03*
X163580000Y-82000000D03*
D13*
X102500000Y-87000000D03*
D12*
X105040000Y-87000000D03*
D19*
X126720000Y-107880000D03*
X126720000Y-123120000D03*
X129260000Y-107880000D03*
X129260000Y-123120000D03*
X131800000Y-107880000D03*
X131800000Y-123120000D03*
X134340000Y-107880000D03*
X134340000Y-123120000D03*
X136880000Y-107880000D03*
X136880000Y-123120000D03*
X139420000Y-107880000D03*
X139420000Y-123120000D03*
X141960000Y-107880000D03*
X141960000Y-123120000D03*
X144500000Y-107880000D03*
X144500000Y-123120000D03*
X147040000Y-107880000D03*
X147040000Y-123120000D03*
X149580000Y-107880000D03*
X149580000Y-123120000D03*
X152120000Y-107880000D03*
X152120000Y-123120000D03*
X154660000Y-107880000D03*
X154660000Y-123120000D03*
X157200000Y-107880000D03*
X157200000Y-123120000D03*
X159740000Y-107880000D03*
X159740000Y-123120000D03*
D13*
X162280000Y-107880000D03*
D19*
X162280000Y-123120000D03*
D20*
X86000000Y-120500000D03*
X205000000Y-120500000D03*
X185000000Y-65500000D03*
X105000000Y-65500000D03*
D10*
X126500000Y-120500000D03*
X122000000Y-120500000D03*
X131500000Y-104500000D03*
X136500000Y-105000000D03*
X121500000Y-118000000D03*
X128000000Y-118000000D03*
X184500000Y-116500000D03*
X177000000Y-116000000D03*
X174000000Y-116000000D03*
X146000000Y-116000000D03*
X136299999Y-85799999D03*
X144000000Y-86500000D03*
X154000000Y-88500000D03*
X149000000Y-85500000D03*
X186000000Y-119500000D03*
X177000000Y-119000000D03*
X173500000Y-119000000D03*
X143500000Y-119000000D03*
X161000000Y-96500000D03*
X156500000Y-94500000D03*
X137000000Y-82000000D03*
X144000000Y-82000000D03*
X155500000Y-98000000D03*
X166000000Y-100000000D03*
X155250000Y-110750000D03*
X147500000Y-110500000D03*
X141750000Y-78250000D03*
X136750000Y-78250000D03*
X190000000Y-113000000D03*
X177000000Y-113000000D03*
X173500000Y-113000000D03*
X165500000Y-114000000D03*
X118500000Y-110500000D03*
X152000000Y-112000000D03*
X146750000Y-113500000D03*
X127000000Y-111500000D03*
X133500000Y-101000000D03*
X122000000Y-100500000D03*
X179000000Y-105500000D03*
X188000000Y-105000000D03*
X159000000Y-72000000D03*
X162500000Y-72000000D03*
X166000000Y-72000000D03*
X161040000Y-92960000D03*
X166960000Y-92960000D03*
X178250000Y-85250000D03*
X178250000Y-91250000D03*
X186000000Y-102000000D03*
X191500000Y-101500000D03*
X135000000Y-98000000D03*
X122000000Y-97000000D03*
X177500000Y-73000000D03*
X168500000Y-75000000D03*
X159000000Y-75000000D03*
X162500000Y-75000000D03*
X166000000Y-75000000D03*
X119500000Y-94000000D03*
X119500000Y-102000000D03*
X122000000Y-114500000D03*
X127500000Y-115000000D03*
X138000000Y-119500000D03*
X152000000Y-121000000D03*
D21*
X145580000Y-100540000D02*
X147460000Y-100540000D01*
X147460000Y-100540000D02*
X148000000Y-100000000D01*
X148000000Y-100000000D02*
X148000000Y-95500000D01*
X148000000Y-95500000D02*
X147500000Y-95000000D01*
X147500000Y-95000000D02*
X146000000Y-95000000D01*
X146000000Y-95000000D02*
X143500000Y-92500000D01*
X143500000Y-92500000D02*
X130000000Y-92500000D01*
X126720000Y-95780000D02*
X126720000Y-107880000D01*
X130000000Y-92500000D02*
X126720000Y-95780000D01*
X124870000Y-123120000D02*
X126720000Y-123120000D01*
X148500000Y-102500000D02*
X148500000Y-102000000D01*
X129000000Y-91000000D02*
X124000000Y-96000000D01*
X124000000Y-122250000D02*
X124870000Y-123120000D01*
X124000000Y-96000000D02*
X124000000Y-122250000D01*
X143040000Y-101540000D02*
X144000000Y-102500000D01*
X148500000Y-102000000D02*
X150000000Y-100500000D01*
X143040000Y-100540000D02*
X143040000Y-101540000D01*
X150000000Y-100500000D02*
X150000000Y-94500000D01*
X144000000Y-102500000D02*
X148500000Y-102500000D01*
X146500000Y-91000000D02*
X129000000Y-91000000D01*
X150000000Y-94500000D02*
X146500000Y-91000000D01*
X129260000Y-95740000D02*
X129260000Y-107880000D01*
X142000000Y-94000000D02*
X131000000Y-94000000D01*
X143040000Y-98000000D02*
X143040000Y-95040000D01*
X131000000Y-94000000D02*
X129260000Y-95740000D01*
X143040000Y-95040000D02*
X142000000Y-94000000D01*
X140500000Y-100540000D02*
X140500000Y-102500000D01*
X140500000Y-102500000D02*
X140000000Y-102500000D01*
X140000000Y-102500000D02*
X139500000Y-103000000D01*
X139500000Y-103000000D02*
X135000000Y-103000000D01*
X134340000Y-103660000D02*
X134340000Y-107880000D01*
X135000000Y-103000000D02*
X134340000Y-103660000D01*
X134340000Y-123120000D02*
X134340000Y-121840000D01*
X134340000Y-121840000D02*
X133000000Y-120500000D01*
X133000000Y-120500000D02*
X126500000Y-120500000D01*
X126500000Y-120500000D02*
X126500000Y-120500000D01*
X103700000Y-110200000D02*
X103700000Y-108960000D01*
X119000000Y-120500000D02*
X114000000Y-115500000D01*
X122000000Y-120500000D02*
X119000000Y-120500000D01*
X107500000Y-114000000D02*
X103700000Y-110200000D01*
X114000000Y-115500000D02*
X112500000Y-114000000D01*
X112500000Y-114000000D02*
X107500000Y-114000000D01*
X136500000Y-105000000D02*
X137000000Y-105500000D01*
X136880000Y-105620000D02*
X136880000Y-107880000D01*
X137000000Y-105500000D02*
X136880000Y-105620000D01*
X131500000Y-104500000D02*
X131500000Y-103000000D01*
X131500000Y-103000000D02*
X131000000Y-102500000D01*
X131000000Y-102500000D02*
X131000000Y-96500000D01*
X131000000Y-96500000D02*
X132000000Y-95500000D01*
X132000000Y-95500000D02*
X140000000Y-95500000D01*
X140000000Y-95500000D02*
X140500000Y-96000000D01*
X140500000Y-96000000D02*
X140500000Y-98000000D01*
X106240000Y-108960000D02*
X106240000Y-110240000D01*
X106240000Y-110240000D02*
X108500000Y-112500000D01*
X108500000Y-112500000D02*
X112500000Y-112500000D01*
X113197070Y-112500000D02*
X118697070Y-118000000D01*
X112500000Y-112500000D02*
X113197070Y-112500000D01*
X118697070Y-118000000D02*
X121500000Y-118000000D01*
X121500000Y-118000000D02*
X121500000Y-118000000D01*
X136880000Y-121020000D02*
X136880000Y-123120000D01*
X136000000Y-121000000D02*
X136860000Y-121000000D01*
X128000000Y-118000000D02*
X129414213Y-118000000D01*
X129414213Y-118000000D02*
X129914213Y-118500000D01*
X129914213Y-118500000D02*
X130000000Y-118500000D01*
X130000000Y-118500000D02*
X130500000Y-119000000D01*
X136860000Y-121000000D02*
X136880000Y-121020000D01*
X134000000Y-119000000D02*
X136000000Y-121000000D01*
X130500000Y-119000000D02*
X134000000Y-119000000D01*
X184200000Y-111460000D02*
X184500000Y-111760000D01*
X184200000Y-108960000D02*
X184200000Y-111460000D01*
X184500000Y-111760000D02*
X184500000Y-116500000D01*
X184500000Y-116500000D02*
X184500000Y-116500000D01*
X177000000Y-116000000D02*
X174000000Y-116000000D01*
X174000000Y-116000000D02*
X174000000Y-116000000D01*
X146000000Y-116000000D02*
X144585787Y-116000000D01*
X144585787Y-116000000D02*
X144085787Y-116500000D01*
X144085787Y-116500000D02*
X143000000Y-116500000D01*
X143000000Y-116500000D02*
X141500000Y-118000000D01*
X141500000Y-118000000D02*
X141500000Y-119000000D01*
X139420000Y-121020000D02*
X139420000Y-123120000D01*
X141440000Y-119000000D02*
X139420000Y-121020000D01*
X141500000Y-119000000D02*
X141440000Y-119000000D01*
X158000000Y-100500000D02*
X158500000Y-100000000D01*
X153000000Y-100500000D02*
X158000000Y-100500000D01*
X158500000Y-100000000D02*
X158500000Y-90000000D01*
X141960000Y-105780000D02*
X142000000Y-105740000D01*
X149500000Y-104000000D02*
X153000000Y-100500000D01*
X141960000Y-107880000D02*
X141960000Y-105780000D01*
X142000000Y-105740000D02*
X142000000Y-105500000D01*
X142000000Y-105500000D02*
X143500000Y-104000000D01*
X143500000Y-104000000D02*
X149500000Y-104000000D01*
X132459999Y-85799999D02*
X136299999Y-85799999D01*
X131660000Y-85000000D02*
X132459999Y-85799999D01*
X136299999Y-85799999D02*
X136299999Y-85799999D01*
X156500000Y-90000000D02*
X155000000Y-88500000D01*
X158500000Y-90000000D02*
X156500000Y-90000000D01*
X155000000Y-88500000D02*
X154000000Y-88500000D01*
X154000000Y-88500000D02*
X154000000Y-88500000D01*
X145414213Y-86500000D02*
X146414213Y-85500000D01*
X144000000Y-86500000D02*
X145414213Y-86500000D01*
X146414213Y-85500000D02*
X149000000Y-85500000D01*
X149000000Y-85500000D02*
X149000000Y-85500000D01*
X186740000Y-111460000D02*
X187000000Y-111720000D01*
X186740000Y-108960000D02*
X186740000Y-111460000D01*
X187000000Y-111720000D02*
X187000000Y-118500000D01*
X187000000Y-118500000D02*
X186000000Y-119500000D01*
X186000000Y-119500000D02*
X186000000Y-119500000D01*
X141960000Y-120540000D02*
X141960000Y-123120000D01*
X141960000Y-120540000D02*
X143500000Y-119000000D01*
X177000000Y-119000000D02*
X173500000Y-119000000D01*
X144500000Y-105780000D02*
X144780000Y-105500000D01*
X144500000Y-107880000D02*
X144500000Y-105780000D01*
X144780000Y-105500000D02*
X151000000Y-105500000D01*
X151000000Y-105500000D02*
X154500000Y-102000000D01*
X154500000Y-102000000D02*
X159500000Y-102000000D01*
X159500000Y-102000000D02*
X161000000Y-100500000D01*
X161000000Y-100500000D02*
X161000000Y-96500000D01*
X161000000Y-96500000D02*
X161000000Y-96500000D01*
X156000000Y-86000000D02*
X158500000Y-86000000D01*
X131660000Y-82000000D02*
X137000000Y-82000000D01*
X137000000Y-82000000D02*
X137000000Y-82000000D01*
X156000000Y-84500000D02*
X156000000Y-86000000D01*
X144000000Y-82000000D02*
X153500000Y-82000000D01*
X153500000Y-82000000D02*
X156000000Y-84500000D01*
X155085787Y-94500000D02*
X154000000Y-93414213D01*
X156500000Y-94500000D02*
X155085787Y-94500000D01*
X154000000Y-93414213D02*
X154000000Y-92500000D01*
X154000000Y-92500000D02*
X151000000Y-89500000D01*
X151000000Y-89500000D02*
X151000000Y-87000000D01*
X152000000Y-86000000D02*
X156000000Y-86000000D01*
X151000000Y-87000000D02*
X152000000Y-86000000D01*
X149500000Y-116000000D02*
X144500000Y-121000000D01*
X144500000Y-121000000D02*
X144500000Y-123120000D01*
X181000000Y-95000000D02*
X176000000Y-100000000D01*
X183000000Y-95000000D02*
X181000000Y-95000000D01*
X167500000Y-103500000D02*
X167500000Y-116000000D01*
X176000000Y-100000000D02*
X171000000Y-100000000D01*
X171000000Y-100000000D02*
X167500000Y-103500000D01*
X167500000Y-116000000D02*
X149500000Y-116000000D01*
X155500000Y-98000000D02*
X155500000Y-98000000D01*
X166000000Y-101414213D02*
X165500000Y-101914213D01*
X166000000Y-100000000D02*
X166000000Y-101414213D01*
X165500000Y-101914213D02*
X165500000Y-110500000D01*
X165500000Y-110500000D02*
X164000000Y-112000000D01*
X164000000Y-112000000D02*
X157000000Y-112000000D01*
X157000000Y-112000000D02*
X156500000Y-112000000D01*
X156500000Y-112000000D02*
X155500000Y-111000000D01*
X155500000Y-111000000D02*
X155250000Y-110750000D01*
X155250000Y-110750000D02*
X155000000Y-110500000D01*
X147500000Y-110500000D02*
X147000000Y-110000000D01*
X147040000Y-109980000D02*
X147040000Y-107880000D01*
X147020000Y-110000000D02*
X147040000Y-109980000D01*
X147000000Y-110000000D02*
X147020000Y-110000000D01*
X156500000Y-82000000D02*
X158500000Y-82000000D01*
X153500000Y-79000000D02*
X156500000Y-82000000D01*
X153500000Y-78000000D02*
X153500000Y-79000000D01*
X142000000Y-78000000D02*
X153500000Y-78000000D01*
X141500000Y-78500000D02*
X141750000Y-78250000D01*
X152000000Y-98000000D02*
X152000000Y-93500000D01*
X155500000Y-98000000D02*
X152000000Y-98000000D01*
X152000000Y-93500000D02*
X147500000Y-89000000D01*
X147500000Y-89000000D02*
X141500000Y-89000000D01*
X141500000Y-89000000D02*
X141500000Y-78500000D01*
X141750000Y-78250000D02*
X142000000Y-78000000D01*
X131910000Y-78250000D02*
X131660000Y-78500000D01*
X136750000Y-78250000D02*
X131910000Y-78250000D01*
X150500000Y-117500000D02*
X147040000Y-120960000D01*
X169000000Y-117500000D02*
X150500000Y-117500000D01*
X147040000Y-120960000D02*
X147040000Y-123120000D01*
X181000000Y-97540000D02*
X177040000Y-101500000D01*
X183000000Y-97540000D02*
X181000000Y-97540000D01*
X169000000Y-104500000D02*
X169000000Y-117500000D01*
X177040000Y-101500000D02*
X172000000Y-101500000D01*
X172000000Y-101500000D02*
X169000000Y-104500000D01*
X189280000Y-111460000D02*
X190000000Y-112180000D01*
X189280000Y-108960000D02*
X189280000Y-111460000D01*
X190000000Y-112180000D02*
X190000000Y-113000000D01*
X190000000Y-113000000D02*
X190000000Y-113000000D01*
X177000000Y-113000000D02*
X173500000Y-113000000D01*
X173500000Y-113000000D02*
X173500000Y-113000000D01*
X150160000Y-114000000D02*
X165500000Y-114000000D01*
X149580000Y-107880000D02*
X149580000Y-113420000D01*
X149580000Y-113420000D02*
X150160000Y-114000000D01*
X127000000Y-111500000D02*
X128500000Y-113000000D01*
X128500000Y-113000000D02*
X136000000Y-113000000D01*
X136000000Y-113000000D02*
X137500000Y-114500000D01*
X137500000Y-114500000D02*
X144000000Y-114500000D01*
X145000000Y-113500000D02*
X146750000Y-113500000D01*
X144000000Y-114500000D02*
X145000000Y-113500000D01*
X152000000Y-108000000D02*
X152120000Y-107880000D01*
X152000000Y-112000000D02*
X152000000Y-108000000D01*
X117000000Y-110500000D02*
X118500000Y-110500000D01*
X111000000Y-111000000D02*
X116500000Y-111000000D01*
X108780000Y-108960000D02*
X108960000Y-108960000D01*
X116500000Y-111000000D02*
X117000000Y-110500000D01*
X108960000Y-108960000D02*
X111000000Y-111000000D01*
X163580000Y-100920000D02*
X163580000Y-90000000D01*
X155940000Y-104500000D02*
X160000000Y-104500000D01*
X154660000Y-107880000D02*
X154660000Y-105780000D01*
X160000000Y-104500000D02*
X163580000Y-100920000D01*
X154660000Y-105780000D02*
X155940000Y-104500000D01*
X163580000Y-90000000D02*
X163580000Y-86000000D01*
X163580000Y-86000000D02*
X163580000Y-82000000D01*
X104040000Y-116000000D02*
X102040000Y-114000000D01*
X104040000Y-118000000D02*
X104040000Y-116000000D01*
X102040000Y-114000000D02*
X100000000Y-114000000D01*
X98500000Y-112500000D02*
X98500000Y-109000000D01*
X100000000Y-114000000D02*
X98500000Y-112500000D01*
X109000000Y-118000000D02*
X104040000Y-118000000D01*
X98500000Y-109000000D02*
X98500000Y-102000000D01*
X101000000Y-99500000D02*
X101000000Y-96040000D01*
X98500000Y-102000000D02*
X101000000Y-99500000D01*
X109500000Y-97540000D02*
X105540000Y-97540000D01*
X104040000Y-96040000D02*
X101000000Y-96040000D01*
X105540000Y-97540000D02*
X104500000Y-96500000D01*
X104500000Y-96500000D02*
X104040000Y-96040000D01*
X159740000Y-122870000D02*
X161610000Y-121000000D01*
X159740000Y-123120000D02*
X159740000Y-122870000D01*
X161610000Y-121000000D02*
X178500000Y-121000000D01*
X179000000Y-120500000D02*
X179000000Y-109000000D01*
X178500000Y-121000000D02*
X179000000Y-120500000D01*
X137960000Y-100540000D02*
X133960000Y-100540000D01*
X133960000Y-100540000D02*
X133500000Y-101000000D01*
X133500000Y-101000000D02*
X133500000Y-101000000D01*
X122000000Y-100500000D02*
X120500000Y-99000000D01*
X120500000Y-99000000D02*
X113500000Y-99000000D01*
X112040000Y-97540000D02*
X109500000Y-97540000D01*
X113500000Y-99000000D02*
X112040000Y-97540000D01*
X179000000Y-109000000D02*
X179000000Y-105500000D01*
X179000000Y-105500000D02*
X179000000Y-105500000D01*
X163580000Y-90000000D02*
X169000000Y-90000000D01*
X169000000Y-90000000D02*
X169500000Y-89500000D01*
X121500000Y-78500000D02*
X121500000Y-77000000D01*
X121500000Y-77000000D02*
X121500000Y-69500000D01*
X119500000Y-84000000D02*
X121500000Y-82000000D01*
X104500000Y-92500000D02*
X109500000Y-87500000D01*
X104500000Y-96500000D02*
X104500000Y-92500000D01*
X115000000Y-87500000D02*
X118500000Y-84000000D01*
X109500000Y-87500000D02*
X115000000Y-87500000D01*
X118500000Y-84000000D02*
X119500000Y-84000000D01*
X121500000Y-85000000D02*
X121500000Y-78500000D01*
X194500000Y-89110000D02*
X194500000Y-90960000D01*
X195110000Y-88500000D02*
X194500000Y-89110000D01*
X194500000Y-98500000D02*
X196500000Y-98500000D01*
X196500000Y-98500000D02*
X198500000Y-96500000D01*
X198500000Y-96500000D02*
X198500000Y-89000000D01*
X198500000Y-89000000D02*
X198000000Y-88500000D01*
X198000000Y-88500000D02*
X195110000Y-88500000D01*
X170000000Y-88000000D02*
X170000000Y-89000000D01*
X170000000Y-89000000D02*
X169000000Y-90000000D01*
X188000000Y-91500000D02*
X184500000Y-88000000D01*
X184500000Y-88000000D02*
X170000000Y-88000000D01*
X188000000Y-93500000D02*
X188000000Y-91500000D01*
X188000000Y-103585787D02*
X188500000Y-103085787D01*
X188000000Y-105000000D02*
X188000000Y-103585787D01*
X188500000Y-94000000D02*
X188000000Y-93500000D01*
X122000000Y-71414213D02*
X121500000Y-70914213D01*
X164500000Y-80000000D02*
X168500000Y-80000000D01*
X171500000Y-77000000D02*
X171500000Y-72500000D01*
X163580000Y-82000000D02*
X163580000Y-80920000D01*
X122000000Y-72000000D02*
X122000000Y-71414213D01*
X168500000Y-80000000D02*
X171500000Y-77000000D01*
X171500000Y-72500000D02*
X171000000Y-72000000D01*
X171000000Y-72000000D02*
X166000000Y-72000000D01*
X139500000Y-72000000D02*
X134500000Y-67000000D01*
X121500000Y-70914213D02*
X121500000Y-69500000D01*
X134500000Y-67000000D02*
X129500000Y-67000000D01*
X129500000Y-67000000D02*
X124500000Y-72000000D01*
X163580000Y-80920000D02*
X164500000Y-80000000D01*
X124500000Y-72000000D02*
X122000000Y-72000000D01*
X141000000Y-72000000D02*
X139500000Y-72000000D01*
X159000000Y-72000000D02*
X141000000Y-72000000D01*
X162500000Y-72000000D02*
X159000000Y-72000000D01*
X166000000Y-72000000D02*
X162500000Y-72000000D01*
X194500000Y-98500000D02*
X188500000Y-98500000D01*
X188500000Y-103085787D02*
X188500000Y-98500000D01*
X188500000Y-98500000D02*
X188500000Y-94000000D01*
X101160000Y-108960000D02*
X101160000Y-102340000D01*
X103420000Y-100080000D02*
X109500000Y-100080000D01*
X101160000Y-102340000D02*
X103420000Y-100080000D01*
X161040000Y-90000000D02*
X161040000Y-86000000D01*
X161040000Y-86000000D02*
X161040000Y-82000000D01*
X164130000Y-123120000D02*
X164250000Y-123000000D01*
X162280000Y-123120000D02*
X164130000Y-123120000D01*
X164250000Y-123000000D02*
X181000000Y-123000000D01*
X181660000Y-122340000D02*
X181660000Y-108960000D01*
X181000000Y-123000000D02*
X181660000Y-122340000D01*
X161040000Y-90000000D02*
X161040000Y-92960000D01*
X161040000Y-92960000D02*
X161040000Y-92960000D01*
X111540000Y-116000000D02*
X111540000Y-118000000D01*
X101160000Y-108960000D02*
X101160000Y-111460000D01*
X102300000Y-111800000D02*
X106000000Y-115500000D01*
X101160000Y-111460000D02*
X101500000Y-111800000D01*
X101500000Y-111800000D02*
X102300000Y-111800000D01*
X111040000Y-115500000D02*
X111540000Y-116000000D01*
X106000000Y-115500000D02*
X111040000Y-115500000D01*
X111540000Y-120000000D02*
X111500000Y-120040000D01*
X111540000Y-118000000D02*
X111540000Y-120000000D01*
X111500000Y-120040000D02*
X111500000Y-120500000D01*
X111500000Y-120500000D02*
X111000000Y-121000000D01*
X111000000Y-121000000D02*
X95500000Y-121000000D01*
X95500000Y-121000000D02*
X86500000Y-112000000D01*
X86500000Y-112000000D02*
X86500000Y-105500000D01*
X86500000Y-105500000D02*
X86500000Y-104000000D01*
X86500000Y-104000000D02*
X89000000Y-101500000D01*
X89000000Y-101500000D02*
X89500000Y-101000000D01*
X89500000Y-101000000D02*
X91500000Y-101000000D01*
X91500000Y-101000000D02*
X91500000Y-100500000D01*
X91500000Y-100500000D02*
X95500000Y-96500000D01*
X95500000Y-96500000D02*
X95500000Y-90000000D01*
X95500000Y-90000000D02*
X97500000Y-88000000D01*
X97500000Y-88000000D02*
X97500000Y-84000000D01*
X97500000Y-84000000D02*
X97500000Y-83500000D01*
X97500000Y-83500000D02*
X99500000Y-81500000D01*
X99500000Y-81500000D02*
X104000000Y-81500000D01*
X104000000Y-81500000D02*
X107000000Y-78500000D01*
X107000000Y-78500000D02*
X107000000Y-77000000D01*
X107000000Y-77000000D02*
X112000000Y-72000000D01*
X112000000Y-72000000D02*
X115500000Y-72000000D01*
X115500000Y-72000000D02*
X118500000Y-69000000D01*
X118500000Y-69000000D02*
X118500000Y-68500000D01*
X118500000Y-68500000D02*
X120500000Y-66500000D01*
X120500000Y-66500000D02*
X127000000Y-66500000D01*
X127000000Y-66500000D02*
X128500000Y-65000000D01*
X128500000Y-65000000D02*
X137000000Y-65000000D01*
X178250000Y-85250000D02*
X178000000Y-85500000D01*
X181660000Y-108960000D02*
X181660000Y-105340000D01*
X186000000Y-92500000D02*
X184750000Y-91250000D01*
X184500000Y-104000000D02*
X186000000Y-102500000D01*
X181660000Y-105340000D02*
X183000000Y-104000000D01*
X183000000Y-104000000D02*
X184500000Y-104000000D01*
X184750000Y-91250000D02*
X178250000Y-91250000D01*
X186000000Y-102500000D02*
X186000000Y-102000000D01*
X170084213Y-91250000D02*
X178250000Y-91250000D01*
X166960000Y-92960000D02*
X168374213Y-92960000D01*
X168374213Y-92960000D02*
X170084213Y-91250000D01*
X186000000Y-102000000D02*
X186000000Y-92500000D01*
X191500000Y-101500000D02*
X192000000Y-101000000D01*
X192040000Y-101040000D02*
X194500000Y-101040000D01*
X192000000Y-101000000D02*
X192040000Y-101040000D01*
X171000000Y-69000000D02*
X141000000Y-69000000D01*
X174000000Y-75000000D02*
X174000000Y-72000000D01*
X174000000Y-72000000D02*
X171000000Y-69000000D01*
X176000000Y-75000000D02*
X174000000Y-75000000D01*
X179500000Y-78500000D02*
X176000000Y-75000000D01*
X137000000Y-65000000D02*
X141000000Y-69000000D01*
X179500000Y-84500000D02*
X179500000Y-78500000D01*
X178250000Y-85250000D02*
X179000000Y-84500000D01*
X179000000Y-84500000D02*
X179500000Y-84500000D01*
X137960000Y-98000000D02*
X135000000Y-98000000D01*
X135000000Y-98000000D02*
X135000000Y-98000000D01*
X122000000Y-97000000D02*
X114000000Y-97000000D01*
X112000000Y-95000000D02*
X109500000Y-95000000D01*
X114000000Y-97000000D02*
X112000000Y-95000000D01*
X194500000Y-93500000D02*
X192000000Y-93500000D01*
X192000000Y-93500000D02*
X190500000Y-92000000D01*
X190500000Y-92000000D02*
X190500000Y-90000000D01*
X190500000Y-90000000D02*
X182000000Y-81500000D01*
X182000000Y-81500000D02*
X182000000Y-77500000D01*
X182000000Y-77500000D02*
X177500000Y-73000000D01*
X177500000Y-73000000D02*
X177500000Y-73000000D01*
X122000000Y-95585787D02*
X122000000Y-97000000D01*
X141000000Y-75000000D02*
X141000000Y-75000000D01*
X168500000Y-75000000D02*
X166000000Y-75000000D01*
X139500000Y-76500000D02*
X139500000Y-89000000D01*
X139500000Y-89000000D02*
X128585787Y-89000000D01*
X128585787Y-89000000D02*
X122000000Y-95585787D01*
X141000000Y-75000000D02*
X139500000Y-76500000D01*
X159000000Y-75000000D02*
X141000000Y-75000000D01*
X162500000Y-75000000D02*
X159000000Y-75000000D01*
X166000000Y-75000000D02*
X162500000Y-75000000D01*
X181000000Y-100080000D02*
X178080000Y-103000000D01*
X183000000Y-100080000D02*
X181000000Y-100080000D01*
X178080000Y-103000000D02*
X173000000Y-103000000D01*
X173000000Y-103000000D02*
X170500000Y-105500000D01*
X170500000Y-105500000D02*
X170500000Y-119000000D01*
X170500000Y-119000000D02*
X151500000Y-119000000D01*
X149580000Y-120920000D02*
X149580000Y-123120000D01*
X151500000Y-119000000D02*
X149580000Y-120920000D01*
X131660000Y-72420000D02*
X133740000Y-74500000D01*
X131660000Y-69500000D02*
X131660000Y-72420000D01*
X132740001Y-75499999D02*
X126500001Y-75499999D01*
X133740000Y-74500000D02*
X132740001Y-75499999D01*
X126500001Y-75499999D02*
X124000000Y-78000000D01*
X124000000Y-78000000D02*
X124000000Y-90500000D01*
X124000000Y-90500000D02*
X120500000Y-94000000D01*
X120500000Y-94000000D02*
X119500000Y-94000000D01*
X119500000Y-94000000D02*
X119500000Y-94000000D01*
X119500000Y-102000000D02*
X119500000Y-103500000D01*
X119500000Y-103500000D02*
X122000000Y-106000000D01*
X122000000Y-106000000D02*
X122000000Y-114500000D01*
X122000000Y-114500000D02*
X122000000Y-114500000D01*
X127500000Y-115000000D02*
X129500000Y-115000000D01*
X129500000Y-115000000D02*
X131000000Y-116500000D01*
X131000000Y-116500000D02*
X134500000Y-116500000D01*
X134500000Y-116500000D02*
X137000000Y-119000000D01*
X137000000Y-119000000D02*
X137000000Y-119000000D01*
X137500000Y-119000000D02*
X138000000Y-119500000D01*
X137000000Y-119000000D02*
X137500000Y-119000000D01*
X152000000Y-123000000D02*
X152120000Y-123120000D01*
X152000000Y-121000000D02*
X152000000Y-123000000D01*
X101000000Y-90500000D02*
X101000000Y-93500000D01*
X102500000Y-87000000D02*
X102500000Y-89000000D01*
X102500000Y-89000000D02*
X101000000Y-90500000D01*
X105040000Y-85000000D02*
X109500000Y-80540000D01*
X109500000Y-80540000D02*
X109500000Y-78500000D01*
X113500000Y-74500000D02*
X118500000Y-74500000D01*
X109500000Y-78500000D02*
X113500000Y-74500000D01*
X105040000Y-85040000D02*
X105000000Y-85000000D01*
X105040000Y-87000000D02*
X105040000Y-85040000D01*
X105000000Y-85000000D02*
X105040000Y-85000000D01*
X105040000Y-85000000D02*
X105040000Y-84540000D01*
X105040000Y-84540000D02*
X104500000Y-84000000D01*
X91000000Y-103000000D02*
X89000000Y-105000000D01*
X89000000Y-105000000D02*
X89000000Y-111000000D01*
X96000000Y-118000000D02*
X101500000Y-118000000D01*
X89000000Y-111000000D02*
X96000000Y-118000000D01*
X91000000Y-103000000D02*
X92500000Y-103000000D01*
X92500000Y-103000000D02*
X96000000Y-99500000D01*
X96000000Y-99500000D02*
X96000000Y-99000000D01*
X96000000Y-99000000D02*
X97500000Y-97500000D01*
X97500000Y-97500000D02*
X97500000Y-91000000D01*
X97500000Y-91000000D02*
X99500000Y-89000000D01*
X99500000Y-89000000D02*
X99500000Y-85000000D01*
X100500000Y-84000000D02*
X104500000Y-84000000D01*
X99500000Y-85000000D02*
X100500000Y-84000000D01*
M02*
