G04 #@! TF.GenerationSoftware,KiCad,Pcbnew,(5.1.5)-3*
G04 #@! TF.CreationDate,2020-04-14T01:24:30+03:00*
G04 #@! TF.ProjectId,Transmitter,5472616e-736d-4697-9474-65722e6b6963,rev?*
G04 #@! TF.SameCoordinates,Original*
G04 #@! TF.FileFunction,Legend,Top*
G04 #@! TF.FilePolarity,Positive*
%FSLAX46Y46*%
G04 Gerber Fmt 4.6, Leading zero omitted, Abs format (unit mm)*
G04 Created by KiCad (PCBNEW (5.1.5)-3) date 2020-04-14 01:24:30*
%MOMM*%
%LPD*%
G04 APERTURE LIST*
%ADD10C,0.120000*%
%ADD11C,0.150000*%
G04 APERTURE END LIST*
D10*
X123370000Y-83690000D02*
X123370000Y-86310000D01*
X123370000Y-86310000D02*
X129790000Y-86310000D01*
X129790000Y-86310000D02*
X129790000Y-83690000D01*
X129790000Y-83690000D02*
X123370000Y-83690000D01*
X122480000Y-85000000D02*
X123370000Y-85000000D01*
X130680000Y-85000000D02*
X129790000Y-85000000D01*
X123370000Y-80690000D02*
X123370000Y-83310000D01*
X123370000Y-83310000D02*
X129790000Y-83310000D01*
X129790000Y-83310000D02*
X129790000Y-80690000D01*
X129790000Y-80690000D02*
X123370000Y-80690000D01*
X122480000Y-82000000D02*
X123370000Y-82000000D01*
X130680000Y-82000000D02*
X129790000Y-82000000D01*
X123370000Y-77190000D02*
X123370000Y-79810000D01*
X123370000Y-79810000D02*
X129790000Y-79810000D01*
X129790000Y-79810000D02*
X129790000Y-77190000D01*
X129790000Y-77190000D02*
X123370000Y-77190000D01*
X122480000Y-78500000D02*
X123370000Y-78500000D01*
X130680000Y-78500000D02*
X129790000Y-78500000D01*
D11*
X136700000Y-101800000D02*
X152200000Y-101800000D01*
X136700000Y-60800000D02*
X136700000Y-101800000D01*
X152200000Y-60800000D02*
X136700000Y-60800000D01*
X152200000Y-101800000D02*
X152200000Y-60800000D01*
D10*
X121560000Y-72840000D02*
X121560000Y-76160000D01*
X121560000Y-76160000D02*
X130680000Y-76160000D01*
X130680000Y-76160000D02*
X130680000Y-72840000D01*
X130680000Y-72840000D02*
X121560000Y-72840000D01*
X119480000Y-74500000D02*
X121560000Y-74500000D01*
X132760000Y-74500000D02*
X130680000Y-74500000D01*
X123370000Y-68190000D02*
X123370000Y-70810000D01*
X123370000Y-70810000D02*
X129790000Y-70810000D01*
X129790000Y-70810000D02*
X129790000Y-68190000D01*
X129790000Y-68190000D02*
X123370000Y-68190000D01*
X122480000Y-69500000D02*
X123370000Y-69500000D01*
X130680000Y-69500000D02*
X129790000Y-69500000D01*
D11*
X171500000Y-78000000D02*
X171500000Y-112000000D01*
X198000000Y-78000000D02*
X171500000Y-78000000D01*
X198000000Y-112000000D02*
X198000000Y-78000000D01*
X171500000Y-112000000D02*
X198000000Y-112000000D01*
X91000000Y-78000000D02*
X91000000Y-112000000D01*
X117500000Y-78000000D02*
X91000000Y-78000000D01*
X117500000Y-112000000D02*
X117500000Y-78000000D01*
X91000000Y-112000000D02*
X117500000Y-112000000D01*
D10*
X108170000Y-96270000D02*
X108170000Y-101410000D01*
X108170000Y-101410000D02*
X110830000Y-101410000D01*
X110830000Y-101410000D02*
X110830000Y-96270000D01*
X110830000Y-96270000D02*
X108170000Y-96270000D01*
X108170000Y-95000000D02*
X108170000Y-93670000D01*
X108170000Y-93670000D02*
X109500000Y-93670000D01*
X181670000Y-96270000D02*
X181670000Y-101410000D01*
X181670000Y-101410000D02*
X184330000Y-101410000D01*
X184330000Y-101410000D02*
X184330000Y-96270000D01*
X184330000Y-96270000D02*
X181670000Y-96270000D01*
X181670000Y-95000000D02*
X181670000Y-93670000D01*
X181670000Y-93670000D02*
X183000000Y-93670000D01*
X195830000Y-99770000D02*
X195830000Y-97170000D01*
X195830000Y-97170000D02*
X193170000Y-97170000D01*
X193170000Y-97170000D02*
X193170000Y-99770000D01*
X193170000Y-99770000D02*
X195830000Y-99770000D01*
X195830000Y-101040000D02*
X195830000Y-102370000D01*
X195830000Y-102370000D02*
X194500000Y-102370000D01*
X102770000Y-119330000D02*
X105370000Y-119330000D01*
X105370000Y-119330000D02*
X105370000Y-116670000D01*
X105370000Y-116670000D02*
X102770000Y-116670000D01*
X102770000Y-116670000D02*
X102770000Y-119330000D01*
X101500000Y-119330000D02*
X100170000Y-119330000D01*
X100170000Y-119330000D02*
X100170000Y-118000000D01*
X195830000Y-92230000D02*
X195830000Y-89630000D01*
X195830000Y-89630000D02*
X193170000Y-89630000D01*
X193170000Y-89630000D02*
X193170000Y-92230000D01*
X193170000Y-92230000D02*
X195830000Y-92230000D01*
X195830000Y-93500000D02*
X195830000Y-94830000D01*
X195830000Y-94830000D02*
X194500000Y-94830000D01*
X110270000Y-116670000D02*
X107670000Y-116670000D01*
X107670000Y-116670000D02*
X107670000Y-119330000D01*
X107670000Y-119330000D02*
X110270000Y-119330000D01*
X110270000Y-119330000D02*
X110270000Y-116670000D01*
X111540000Y-116670000D02*
X112870000Y-116670000D01*
X112870000Y-116670000D02*
X112870000Y-118000000D01*
X99670000Y-94770000D02*
X99670000Y-97370000D01*
X99670000Y-97370000D02*
X102330000Y-97370000D01*
X102330000Y-97370000D02*
X102330000Y-94770000D01*
X102330000Y-94770000D02*
X99670000Y-94770000D01*
X99670000Y-93500000D02*
X99670000Y-92170000D01*
X99670000Y-92170000D02*
X101000000Y-92170000D01*
X159770000Y-91330000D02*
X164910000Y-91330000D01*
X164910000Y-91330000D02*
X164910000Y-88670000D01*
X164910000Y-88670000D02*
X159770000Y-88670000D01*
X159770000Y-88670000D02*
X159770000Y-91330000D01*
X158500000Y-91330000D02*
X157170000Y-91330000D01*
X157170000Y-91330000D02*
X157170000Y-90000000D01*
X159770000Y-87330000D02*
X164910000Y-87330000D01*
X164910000Y-87330000D02*
X164910000Y-84670000D01*
X164910000Y-84670000D02*
X159770000Y-84670000D01*
X159770000Y-84670000D02*
X159770000Y-87330000D01*
X158500000Y-87330000D02*
X157170000Y-87330000D01*
X157170000Y-87330000D02*
X157170000Y-86000000D01*
X159770000Y-83330000D02*
X164910000Y-83330000D01*
X164910000Y-83330000D02*
X164910000Y-80670000D01*
X164910000Y-80670000D02*
X159770000Y-80670000D01*
X159770000Y-80670000D02*
X159770000Y-83330000D01*
X158500000Y-83330000D02*
X157170000Y-83330000D01*
X157170000Y-83330000D02*
X157170000Y-82000000D01*
X103770000Y-88330000D02*
X106370000Y-88330000D01*
X106370000Y-88330000D02*
X106370000Y-85670000D01*
X106370000Y-85670000D02*
X103770000Y-85670000D01*
X103770000Y-85670000D02*
X103770000Y-88330000D01*
X102500000Y-88330000D02*
X101170000Y-88330000D01*
X101170000Y-88330000D02*
X101170000Y-87000000D01*
D11*
X122910000Y-124390000D02*
X166090000Y-124390000D01*
X166090000Y-106610000D02*
X122910000Y-106610000D01*
X166090000Y-124390000D02*
X166090000Y-106610000D01*
X161010000Y-111690000D02*
X161010000Y-119310000D01*
X166090000Y-111690000D02*
X161010000Y-111690000D01*
X161010000Y-119310000D02*
X166090000Y-119310000D01*
X163550000Y-116770000D02*
X166090000Y-116770000D01*
X163550000Y-119310000D02*
X163550000Y-116770000D01*
X165455000Y-123120000D02*
G75*
G03X165455000Y-123120000I-635000J0D01*
G01*
X165455000Y-107880000D02*
G75*
G03X165455000Y-107880000I-635000J0D01*
G01*
X124815000Y-123120000D02*
G75*
G03X124815000Y-123120000I-635000J0D01*
G01*
X124815000Y-107880000D02*
G75*
G03X124815000Y-107880000I-635000J0D01*
G01*
X165455000Y-118040000D02*
G75*
G03X165455000Y-118040000I-635000J0D01*
G01*
X162915000Y-118040000D02*
G75*
G03X162915000Y-118040000I-635000J0D01*
G01*
X162915000Y-115500000D02*
G75*
G03X162915000Y-115500000I-635000J0D01*
G01*
X162915000Y-112960000D02*
G75*
G03X162915000Y-112960000I-635000J0D01*
G01*
X165455000Y-112960000D02*
G75*
G03X165455000Y-112960000I-635000J0D01*
G01*
X165455000Y-115500000D02*
G75*
G03X165455000Y-115500000I-635000J0D01*
G01*
X129260000Y-119310000D02*
X121005000Y-119310000D01*
X129260000Y-111690000D02*
X129260000Y-119310000D01*
X121005000Y-111690000D02*
X129260000Y-111690000D01*
X121005000Y-119310000D02*
X121005000Y-111690000D01*
X122910000Y-124390000D02*
X122910000Y-119310000D01*
X122910000Y-111690000D02*
X122910000Y-106610000D01*
X126413333Y-83142380D02*
X126080000Y-82666190D01*
X125841904Y-83142380D02*
X125841904Y-82142380D01*
X126222857Y-82142380D01*
X126318095Y-82190000D01*
X126365714Y-82237619D01*
X126413333Y-82332857D01*
X126413333Y-82475714D01*
X126365714Y-82570952D01*
X126318095Y-82618571D01*
X126222857Y-82666190D01*
X125841904Y-82666190D01*
X127318095Y-82142380D02*
X126841904Y-82142380D01*
X126794285Y-82618571D01*
X126841904Y-82570952D01*
X126937142Y-82523333D01*
X127175238Y-82523333D01*
X127270476Y-82570952D01*
X127318095Y-82618571D01*
X127365714Y-82713809D01*
X127365714Y-82951904D01*
X127318095Y-83047142D01*
X127270476Y-83094761D01*
X127175238Y-83142380D01*
X126937142Y-83142380D01*
X126841904Y-83094761D01*
X126794285Y-83047142D01*
X126413333Y-80142380D02*
X126080000Y-79666190D01*
X125841904Y-80142380D02*
X125841904Y-79142380D01*
X126222857Y-79142380D01*
X126318095Y-79190000D01*
X126365714Y-79237619D01*
X126413333Y-79332857D01*
X126413333Y-79475714D01*
X126365714Y-79570952D01*
X126318095Y-79618571D01*
X126222857Y-79666190D01*
X125841904Y-79666190D01*
X127270476Y-79475714D02*
X127270476Y-80142380D01*
X127032380Y-79094761D02*
X126794285Y-79809047D01*
X127413333Y-79809047D01*
X126413333Y-76642380D02*
X126080000Y-76166190D01*
X125841904Y-76642380D02*
X125841904Y-75642380D01*
X126222857Y-75642380D01*
X126318095Y-75690000D01*
X126365714Y-75737619D01*
X126413333Y-75832857D01*
X126413333Y-75975714D01*
X126365714Y-76070952D01*
X126318095Y-76118571D01*
X126222857Y-76166190D01*
X125841904Y-76166190D01*
X126746666Y-75642380D02*
X127365714Y-75642380D01*
X127032380Y-76023333D01*
X127175238Y-76023333D01*
X127270476Y-76070952D01*
X127318095Y-76118571D01*
X127365714Y-76213809D01*
X127365714Y-76451904D01*
X127318095Y-76547142D01*
X127270476Y-76594761D01*
X127175238Y-76642380D01*
X126889523Y-76642380D01*
X126794285Y-76594761D01*
X126746666Y-76547142D01*
X141222380Y-88601904D02*
X142031904Y-88601904D01*
X142127142Y-88554285D01*
X142174761Y-88506666D01*
X142222380Y-88411428D01*
X142222380Y-88220952D01*
X142174761Y-88125714D01*
X142127142Y-88078095D01*
X142031904Y-88030476D01*
X141222380Y-88030476D01*
X142222380Y-87030476D02*
X142222380Y-87601904D01*
X142222380Y-87316190D02*
X141222380Y-87316190D01*
X141365238Y-87411428D01*
X141460476Y-87506666D01*
X141508095Y-87601904D01*
X125953333Y-72292380D02*
X125620000Y-71816190D01*
X125381904Y-72292380D02*
X125381904Y-71292380D01*
X125762857Y-71292380D01*
X125858095Y-71340000D01*
X125905714Y-71387619D01*
X125953333Y-71482857D01*
X125953333Y-71625714D01*
X125905714Y-71720952D01*
X125858095Y-71768571D01*
X125762857Y-71816190D01*
X125381904Y-71816190D01*
X126334285Y-71387619D02*
X126381904Y-71340000D01*
X126477142Y-71292380D01*
X126715238Y-71292380D01*
X126810476Y-71340000D01*
X126858095Y-71387619D01*
X126905714Y-71482857D01*
X126905714Y-71578095D01*
X126858095Y-71720952D01*
X126286666Y-72292380D01*
X126905714Y-72292380D01*
X126413333Y-67642380D02*
X126080000Y-67166190D01*
X125841904Y-67642380D02*
X125841904Y-66642380D01*
X126222857Y-66642380D01*
X126318095Y-66690000D01*
X126365714Y-66737619D01*
X126413333Y-66832857D01*
X126413333Y-66975714D01*
X126365714Y-67070952D01*
X126318095Y-67118571D01*
X126222857Y-67166190D01*
X125841904Y-67166190D01*
X127365714Y-67642380D02*
X126794285Y-67642380D01*
X127080000Y-67642380D02*
X127080000Y-66642380D01*
X126984761Y-66785238D01*
X126889523Y-66880476D01*
X126794285Y-66928095D01*
X183785714Y-88452380D02*
X183785714Y-89166666D01*
X183738095Y-89309523D01*
X183642857Y-89404761D01*
X183500000Y-89452380D01*
X183404761Y-89452380D01*
X184166666Y-88785714D02*
X184404761Y-89452380D01*
X184642857Y-88785714D02*
X184404761Y-89452380D01*
X184309523Y-89690476D01*
X184261904Y-89738095D01*
X184166666Y-89785714D01*
X184976190Y-88547619D02*
X185023809Y-88500000D01*
X185119047Y-88452380D01*
X185357142Y-88452380D01*
X185452380Y-88500000D01*
X185500000Y-88547619D01*
X185547619Y-88642857D01*
X185547619Y-88738095D01*
X185500000Y-88880952D01*
X184928571Y-89452380D01*
X185547619Y-89452380D01*
X103285714Y-88452380D02*
X103285714Y-89166666D01*
X103238095Y-89309523D01*
X103142857Y-89404761D01*
X103000000Y-89452380D01*
X102904761Y-89452380D01*
X103666666Y-88785714D02*
X103904761Y-89452380D01*
X104142857Y-88785714D02*
X103904761Y-89452380D01*
X103809523Y-89690476D01*
X103761904Y-89738095D01*
X103666666Y-89785714D01*
X105047619Y-89452380D02*
X104476190Y-89452380D01*
X104761904Y-89452380D02*
X104761904Y-88452380D01*
X104666666Y-88595238D01*
X104571428Y-88690476D01*
X104476190Y-88738095D01*
X108690476Y-92122380D02*
X108690476Y-92836666D01*
X108642857Y-92979523D01*
X108547619Y-93074761D01*
X108404761Y-93122380D01*
X108309523Y-93122380D01*
X109690476Y-93122380D02*
X109119047Y-93122380D01*
X109404761Y-93122380D02*
X109404761Y-92122380D01*
X109309523Y-92265238D01*
X109214285Y-92360476D01*
X109119047Y-92408095D01*
X110071428Y-92217619D02*
X110119047Y-92170000D01*
X110214285Y-92122380D01*
X110452380Y-92122380D01*
X110547619Y-92170000D01*
X110595238Y-92217619D01*
X110642857Y-92312857D01*
X110642857Y-92408095D01*
X110595238Y-92550952D01*
X110023809Y-93122380D01*
X110642857Y-93122380D01*
X182190476Y-92122380D02*
X182190476Y-92836666D01*
X182142857Y-92979523D01*
X182047619Y-93074761D01*
X181904761Y-93122380D01*
X181809523Y-93122380D01*
X183190476Y-93122380D02*
X182619047Y-93122380D01*
X182904761Y-93122380D02*
X182904761Y-92122380D01*
X182809523Y-92265238D01*
X182714285Y-92360476D01*
X182619047Y-92408095D01*
X184142857Y-93122380D02*
X183571428Y-93122380D01*
X183857142Y-93122380D02*
X183857142Y-92122380D01*
X183761904Y-92265238D01*
X183666666Y-92360476D01*
X183571428Y-92408095D01*
X193690476Y-102822380D02*
X193690476Y-103536666D01*
X193642857Y-103679523D01*
X193547619Y-103774761D01*
X193404761Y-103822380D01*
X193309523Y-103822380D01*
X194690476Y-103822380D02*
X194119047Y-103822380D01*
X194404761Y-103822380D02*
X194404761Y-102822380D01*
X194309523Y-102965238D01*
X194214285Y-103060476D01*
X194119047Y-103108095D01*
X195309523Y-102822380D02*
X195404761Y-102822380D01*
X195500000Y-102870000D01*
X195547619Y-102917619D01*
X195595238Y-103012857D01*
X195642857Y-103203333D01*
X195642857Y-103441428D01*
X195595238Y-103631904D01*
X195547619Y-103727142D01*
X195500000Y-103774761D01*
X195404761Y-103822380D01*
X195309523Y-103822380D01*
X195214285Y-103774761D01*
X195166666Y-103727142D01*
X195119047Y-103631904D01*
X195071428Y-103441428D01*
X195071428Y-103203333D01*
X195119047Y-103012857D01*
X195166666Y-102917619D01*
X195214285Y-102870000D01*
X195309523Y-102822380D01*
X98622380Y-118333333D02*
X99336666Y-118333333D01*
X99479523Y-118380952D01*
X99574761Y-118476190D01*
X99622380Y-118619047D01*
X99622380Y-118714285D01*
X99622380Y-117809523D02*
X99622380Y-117619047D01*
X99574761Y-117523809D01*
X99527142Y-117476190D01*
X99384285Y-117380952D01*
X99193809Y-117333333D01*
X98812857Y-117333333D01*
X98717619Y-117380952D01*
X98670000Y-117428571D01*
X98622380Y-117523809D01*
X98622380Y-117714285D01*
X98670000Y-117809523D01*
X98717619Y-117857142D01*
X98812857Y-117904761D01*
X99050952Y-117904761D01*
X99146190Y-117857142D01*
X99193809Y-117809523D01*
X99241428Y-117714285D01*
X99241428Y-117523809D01*
X99193809Y-117428571D01*
X99146190Y-117380952D01*
X99050952Y-117333333D01*
X194166666Y-95282380D02*
X194166666Y-95996666D01*
X194119047Y-96139523D01*
X194023809Y-96234761D01*
X193880952Y-96282380D01*
X193785714Y-96282380D01*
X194785714Y-95710952D02*
X194690476Y-95663333D01*
X194642857Y-95615714D01*
X194595238Y-95520476D01*
X194595238Y-95472857D01*
X194642857Y-95377619D01*
X194690476Y-95330000D01*
X194785714Y-95282380D01*
X194976190Y-95282380D01*
X195071428Y-95330000D01*
X195119047Y-95377619D01*
X195166666Y-95472857D01*
X195166666Y-95520476D01*
X195119047Y-95615714D01*
X195071428Y-95663333D01*
X194976190Y-95710952D01*
X194785714Y-95710952D01*
X194690476Y-95758571D01*
X194642857Y-95806190D01*
X194595238Y-95901428D01*
X194595238Y-96091904D01*
X194642857Y-96187142D01*
X194690476Y-96234761D01*
X194785714Y-96282380D01*
X194976190Y-96282380D01*
X195071428Y-96234761D01*
X195119047Y-96187142D01*
X195166666Y-96091904D01*
X195166666Y-95901428D01*
X195119047Y-95806190D01*
X195071428Y-95758571D01*
X194976190Y-95710952D01*
X113322380Y-118333333D02*
X114036666Y-118333333D01*
X114179523Y-118380952D01*
X114274761Y-118476190D01*
X114322380Y-118619047D01*
X114322380Y-118714285D01*
X113322380Y-117952380D02*
X113322380Y-117285714D01*
X114322380Y-117714285D01*
X100666666Y-90622380D02*
X100666666Y-91336666D01*
X100619047Y-91479523D01*
X100523809Y-91574761D01*
X100380952Y-91622380D01*
X100285714Y-91622380D01*
X101571428Y-90622380D02*
X101380952Y-90622380D01*
X101285714Y-90670000D01*
X101238095Y-90717619D01*
X101142857Y-90860476D01*
X101095238Y-91050952D01*
X101095238Y-91431904D01*
X101142857Y-91527142D01*
X101190476Y-91574761D01*
X101285714Y-91622380D01*
X101476190Y-91622380D01*
X101571428Y-91574761D01*
X101619047Y-91527142D01*
X101666666Y-91431904D01*
X101666666Y-91193809D01*
X101619047Y-91098571D01*
X101571428Y-91050952D01*
X101476190Y-91003333D01*
X101285714Y-91003333D01*
X101190476Y-91050952D01*
X101142857Y-91098571D01*
X101095238Y-91193809D01*
X155622380Y-90333333D02*
X156336666Y-90333333D01*
X156479523Y-90380952D01*
X156574761Y-90476190D01*
X156622380Y-90619047D01*
X156622380Y-90714285D01*
X155622380Y-89380952D02*
X155622380Y-89857142D01*
X156098571Y-89904761D01*
X156050952Y-89857142D01*
X156003333Y-89761904D01*
X156003333Y-89523809D01*
X156050952Y-89428571D01*
X156098571Y-89380952D01*
X156193809Y-89333333D01*
X156431904Y-89333333D01*
X156527142Y-89380952D01*
X156574761Y-89428571D01*
X156622380Y-89523809D01*
X156622380Y-89761904D01*
X156574761Y-89857142D01*
X156527142Y-89904761D01*
X155622380Y-86333333D02*
X156336666Y-86333333D01*
X156479523Y-86380952D01*
X156574761Y-86476190D01*
X156622380Y-86619047D01*
X156622380Y-86714285D01*
X155955714Y-85428571D02*
X156622380Y-85428571D01*
X155574761Y-85666666D02*
X156289047Y-85904761D01*
X156289047Y-85285714D01*
X155622380Y-82333333D02*
X156336666Y-82333333D01*
X156479523Y-82380952D01*
X156574761Y-82476190D01*
X156622380Y-82619047D01*
X156622380Y-82714285D01*
X155622380Y-81952380D02*
X155622380Y-81333333D01*
X156003333Y-81666666D01*
X156003333Y-81523809D01*
X156050952Y-81428571D01*
X156098571Y-81380952D01*
X156193809Y-81333333D01*
X156431904Y-81333333D01*
X156527142Y-81380952D01*
X156574761Y-81428571D01*
X156622380Y-81523809D01*
X156622380Y-81809523D01*
X156574761Y-81904761D01*
X156527142Y-81952380D01*
X99622380Y-87333333D02*
X100336666Y-87333333D01*
X100479523Y-87380952D01*
X100574761Y-87476190D01*
X100622380Y-87619047D01*
X100622380Y-87714285D01*
X100622380Y-86333333D02*
X100622380Y-86904761D01*
X100622380Y-86619047D02*
X99622380Y-86619047D01*
X99765238Y-86714285D01*
X99860476Y-86809523D01*
X99908095Y-86904761D01*
X167560000Y-116357142D02*
X167560000Y-115785714D01*
X167902857Y-116471428D02*
X166702857Y-116071428D01*
X167902857Y-115671428D01*
X167902857Y-114642857D02*
X167902857Y-115328571D01*
X167902857Y-114985714D02*
X166702857Y-114985714D01*
X166874285Y-115100000D01*
X166988571Y-115214285D01*
X167045714Y-115328571D01*
M02*
